<svg width="76" height="111" viewBox="0 0 76 111" fill="none" xmlns="http://www.w3.org/2000/svg">
<g clip-path="url(#clip0_240_160)">
<path d="M0.540823 93.0558C1.35209 91.8319 2.87322 91.3378 4.24787 91.8206C18.1746 96.7165 32.2929 99.2992 46.9408 97.6822C55.5155 96.7727 63.4366 94.6616 71.7183 91.7869C73.0704 91.3153 74.569 91.8431 75.369 93.0446C76.2366 94.3472 76.0451 96.1102 74.8958 97.1769C59.6845 111.348 35.8422 114.638 16.7662 107.002C10.9408 104.678 5.49857 101.422 0.968992 97.1769C-0.157768 96.1102 -0.33805 94.3696 0.518288 93.0671L0.540823 93.0558Z" fill="white"/>
<path d="M0.732392 75.078L0.315491 76.2571C0.428167 75.8528 0.574646 75.4598 0.732392 75.078Z" fill="white"/>
<path d="M15.2338 82.4331C14.8845 83.0732 14.4451 83.6459 13.938 84.1512L15.2338 82.4331Z" fill="white"/>
<path d="M15.9211 80.8498C15.7972 81.2428 15.6507 81.6358 15.4592 81.9952C15.6056 81.6134 15.7521 81.2204 15.9211 80.8498Z" fill="white"/>
<path d="M75.7183 76.3357L75.2338 74.9994C75.4366 75.4261 75.5944 75.8753 75.7183 76.3357Z" fill="white"/>
<path d="M76 78.4355C76 82.9159 72.3606 86.5542 67.8536 86.5542C65.6 86.5542 63.5719 85.6446 62.0958 84.1736L62.0733 84.1512L60.8676 82.5678C60.5972 81.7257 60.2592 80.9059 59.8874 80.1199C56.0789 71.9114 47.7521 66.2182 38.0733 66.2182C28.3944 66.2182 19.5831 72.2483 15.9324 80.8273V80.8498C15.7634 81.2316 15.6169 81.6134 15.4704 81.9952C15.4028 82.1411 15.324 82.2871 15.2338 82.4219L13.9381 84.1399L13.9155 84.1624C12.4395 85.6334 10.4113 86.543 8.15777 86.543C3.65073 86.5542 0.0112915 82.9159 0.0112915 78.4355C0.0112915 77.7056 0.101432 76.9982 0.281714 76.3357L0.304249 76.2571L0.721151 75.078L10.2197 48.6895L10.862 48.1169L16.2704 43.2883L22.0282 47.1062L24.4169 48.6895L27.5606 46.6009L31.4817 43.9958L32.5634 43.2883L36.5521 45.7924L41.1831 48.6895L43.5493 47.0276L46.5916 44.8829L48.8451 43.2883L50.693 44.5123L56.9916 48.7008L63.7071 43.3332C63.831 43.5466 63.9437 43.7712 64.0564 43.9958L64.4057 44.8155C64.5634 45.2085 64.6874 45.6128 64.7888 46.0282L75.2113 75.0106L75.6958 76.3469C75.8874 77.0206 75.9775 77.7169 75.9775 78.4468L76 78.4355Z" fill="white"/>
<path d="M62.2197 39.6725L61.2845 40.4249L56.9916 43.861L49.5775 38.9314L48.8563 38.4486L41.1944 43.861L32.5747 38.4486L29.1042 40.7618L24.4394 43.861L17.0254 38.9314C14.8056 39.9982 13.0141 41.7948 11.9437 43.9958L13.093 41.312L27.831 7.22033L28.3606 5.99636C30.1409 2.43672 33.8141 0 38.0732 0C42.3324 0 46.0056 2.43672 47.7859 5.99636V6.01882L47.8085 6.04127L48.3042 7.18665L62.231 39.695L62.2197 39.6725Z" fill="white"/>
</g>
<defs>
<clipPath id="clip0_240_160">
<rect width="76" height="111" fill="white"/>
</clipPath>
</defs>
</svg>
