<svg width="255" height="252" viewBox="0 0 255 252" fill="none" xmlns="http://www.w3.org/2000/svg">
<g clip-path="url(#clip0_16_394)">
<path d="M39.3 172.93H125.76L172.92 133.63V0H0V251.53H172.93V191.27L157.21 204.37H125.77V188.65H39.3C34.96 188.65 31.44 185.13 31.44 180.79C31.44 176.45 34.96 172.93 39.3 172.93ZM39.3 220.09H133.62C137.96 220.09 141.48 223.61 141.48 227.95C141.48 232.29 137.96 235.81 133.62 235.81H39.3C34.96 235.81 31.44 232.29 31.44 227.95C31.44 223.61 34.96 220.09 39.3 220.09ZM47.16 15.72H125.76C134.44 15.72 141.48 22.76 141.48 31.44C141.48 40.12 134.44 47.16 125.76 47.16H47.16C38.48 47.16 31.44 40.12 31.44 31.44C31.44 22.76 38.48 15.72 47.16 15.72ZM39.3 78.6H133.62C137.96 78.6 141.48 82.12 141.48 86.46C141.48 90.8 137.96 94.32 133.62 94.32H39.3C34.96 94.32 31.44 90.8 31.44 86.46C31.44 82.12 34.96 78.6 39.3 78.6ZM39.3 125.76H133.62C137.96 125.76 141.48 129.28 141.48 133.62C141.48 137.96 137.96 141.48 133.62 141.48H39.3C34.96 141.48 31.44 137.96 31.44 133.62C31.44 129.28 34.96 125.76 39.3 125.76Z" fill="white"/>
<path d="M234.39 140.06L172.93 191.27L157.21 204.37L139.19 186.35L128.06 175.22L125.77 172.93L172.93 133.63L202.95 108.62L234.39 140.06Z" stroke="white" stroke-miterlimit="10"/>
<path d="M157.21 204.37H125.77V172.93L128.06 175.22L139.19 186.35L157.21 204.37Z" stroke="white" stroke-miterlimit="10"/>
<path d="M254.78 117.91C254.78 120.58 253.83 123 252.26 124.92L249.19 127.52L234.39 140.07L202.95 108.63L220.09 94.33L220.16 94.26L221.51 93.14C223.33 91.84 225.55 91.07 227.95 91.07C230.72 91.07 233.29 92.09 235.24 93.79L236.56 95.14L251.51 110.09L251.86 110.44C253.66 112.41 254.78 115.03 254.78 117.93V117.91Z" fill="white"/>
</g>
<defs>
<clipPath id="clip0_16_394">
<rect width="254.78" height="251.53" fill="white"/>
</clipPath>
</defs>
</svg>
