<svg width="235" height="235" viewBox="0 0 235 235" fill="none" xmlns="http://www.w3.org/2000/svg">
<g clip-path="url(#clip0_16_475)">
<path d="M0 0V233.06H160.23C152.18 233.06 145.66 226.54 145.66 218.49C145.66 216.29 146.15 214.19 147.02 212.32L160.22 184.09V0H0ZM123.81 218.5H36.42C32.4 218.5 29.14 215.24 29.14 211.22C29.14 207.2 32.4 203.94 36.42 203.94H123.82C127.84 203.94 131.1 207.2 131.1 211.22C131.1 215.24 127.84 218.5 123.82 218.5H123.81ZM123.81 174.8H36.42C32.4 174.8 29.14 171.54 29.14 167.52C29.14 163.5 32.4 160.24 36.42 160.24H123.82C127.84 160.24 131.1 163.5 131.1 167.52C131.1 171.54 127.84 174.8 123.82 174.8H123.81ZM123.81 131.1H36.42C32.4 131.1 29.14 127.84 29.14 123.82C29.14 119.8 32.4 116.54 36.42 116.54H123.82C127.84 116.54 131.1 119.8 131.1 123.82C131.1 127.84 127.84 131.1 123.82 131.1H123.81ZM123.81 87.4H36.42C32.4 87.4 29.14 84.14 29.14 80.12C29.14 76.1 32.4 72.84 36.42 72.84H123.82C127.84 72.84 131.1 76.1 131.1 80.12C131.1 84.14 127.84 87.4 123.82 87.4H123.81ZM116.53 43.7H43.7C35.65 43.7 29.13 37.18 29.13 29.13C29.13 21.08 35.65 14.56 43.7 14.56H116.53C124.58 14.56 131.1 21.08 131.1 29.13C131.1 37.18 124.58 43.7 116.53 43.7Z" fill="white"/>
<path d="M131.1 29.13C131.1 37.18 124.58 43.7 116.53 43.7H43.7C35.65 43.7 29.13 37.18 29.13 29.13C29.13 21.08 35.65 14.56 43.7 14.56H116.53C124.58 14.56 131.1 21.08 131.1 29.13Z" stroke="white" stroke-width="2.31" stroke-miterlimit="10"/>
<path d="M131.1 80.12C131.1 84.14 127.84 87.4 123.82 87.4H36.42C32.4 87.4 29.14 84.14 29.14 80.12C29.14 76.1 32.4 72.84 36.42 72.84H123.82C127.84 72.84 131.1 76.1 131.1 80.12Z" stroke="white" stroke-width="2.31" stroke-miterlimit="10"/>
<path d="M131.1 123.81C131.1 127.83 127.84 131.09 123.82 131.09H36.42C32.4 131.09 29.14 127.83 29.14 123.81C29.14 119.79 32.4 116.53 36.42 116.53H123.82C127.84 116.53 131.1 119.79 131.1 123.81Z" stroke="white" stroke-width="2.31" stroke-miterlimit="10"/>
<path d="M131.1 167.51C131.1 171.53 127.84 174.79 123.82 174.79H36.42C32.4 174.79 29.14 171.53 29.14 167.51C29.14 163.49 32.4 160.23 36.42 160.23H123.82C127.84 160.23 131.1 163.49 131.1 167.51Z" stroke="white" stroke-width="2.31" stroke-miterlimit="10"/>
<path d="M131.1 211.21C131.1 215.23 127.84 218.49 123.82 218.49H36.42C32.4 218.49 29.14 215.23 29.14 211.21C29.14 207.19 32.4 203.93 36.42 203.93H123.82C127.84 203.93 131.1 207.19 131.1 211.21Z" stroke="white" stroke-width="2.31" stroke-miterlimit="10"/>
<path d="M205.013 143.998C216.161 139.38 221.456 126.598 216.838 115.449C212.22 104.3 199.438 99.0061 188.289 103.624C177.14 108.242 171.846 121.024 176.464 132.172C181.082 143.321 193.864 148.616 205.013 143.998Z" stroke="white" stroke-width="2.31" stroke-miterlimit="10"/>
<path d="M205.013 143.998C216.161 139.38 221.456 126.598 216.838 115.449C212.22 104.3 199.438 99.0061 188.289 103.624C177.14 108.242 171.846 121.024 176.464 132.172C181.082 143.321 193.864 148.616 205.013 143.998Z" stroke="white" stroke-width="2.31" stroke-miterlimit="10"/>
<path d="M196.65 87.4C176.53 87.4 160.23 103.7 160.23 123.82C160.23 135.75 165.96 146.32 174.8 152.95L160.23 184.09L147.03 212.32C146.15 214.19 145.67 216.3 145.67 218.49C145.67 226.54 152.19 233.06 160.24 233.06C165.72 233.06 170.48 230.03 172.96 225.59L174.79 218.19L189.38 159.48C191.74 159.97 194.17 160.22 196.66 160.22C216.78 160.22 233.08 143.92 233.08 123.8C233.08 103.68 216.78 87.38 196.66 87.38L196.65 87.4Z" stroke="white" stroke-width="2.31" stroke-miterlimit="10"/>
<path d="M196.65 145.66C208.717 145.66 218.5 135.877 218.5 123.81C218.5 111.743 208.717 101.96 196.65 101.96C184.583 101.96 174.8 111.743 174.8 123.81C174.8 135.877 184.583 145.66 196.65 145.66Z" fill="white"/>
<path d="M174.8 218.5C174.8 221.07 174.13 223.49 172.95 225.6L174.78 218.2C174.8 218.29 174.8 218.41 174.8 218.5Z" stroke="white" stroke-width="2.31" stroke-miterlimit="10"/>
</g>
<defs>
<clipPath id="clip0_16_475">
<rect width="234.22" height="234.22" fill="white"/>
</clipPath>
</defs>
</svg>
