<svg width="277" height="563" viewBox="0 0 277 563" fill="none" xmlns="http://www.w3.org/2000/svg">
<g clip-path="url(#clip0_26_139)">
<path d="M190.894 337.608C188.48 340.01 186.381 342.541 184.559 345.47C186.399 342.532 188.498 340.01 190.894 337.608Z" fill="white"/>
<path d="M118.659 420.13C93.8747 419.196 70.2835 421.441 46.0449 425.756C37.0006 464.042 29.2971 502.457 21.492 541.011C36.5012 540.559 50.8908 541.187 66.3069 540.069C70.9493 522.552 87.7619 488.35 94.5775 476.81C101.911 464.402 106.008 456.346 113.341 456.328C132.484 456.291 149.778 506.911 158.203 520.427C159.793 522.977 165.009 534.997 167.034 538.859C167.737 539.191 168.283 539.025 168.865 539.025C179.583 539.025 190.274 538.923 200.992 538.914C200.964 538.683 200.946 538.48 200.909 538.249C196.905 509.728 190.903 481.559 185.04 453.334C183.357 445.222 181.609 436.861 179.861 428.685C159.775 424.25 139.106 420.896 118.659 420.13Z" fill="white"/>
<path d="M8.04587 218.925C9.29434 234.511 20.0958 256.989 29.9725 265.489C46.6093 279.809 58.7332 280.955 76.7664 288.161C86.8928 292.208 98.878 294.85 109.587 298.167C109.855 299.747 110.003 301.41 110.225 303.027C109.615 303.008 109.032 302.944 108.412 302.944C111.825 306.445 115.21 308.838 120.351 308.986C125.484 309.134 129.729 306.824 133.169 303.045C131.523 302.814 129.849 302.676 128.194 302.528C128.591 301.04 129.026 299.461 129.368 298.019C155.095 294.342 177.938 286.092 200.132 271.744C211.738 264.242 223.696 253.183 233.286 242.586C243.403 245.339 253.446 242.734 262.065 237.782C271.109 232.589 276.39 218.343 276.852 211.201C277.629 199.228 275.613 194.045 268.936 187.402C263.23 181.729 256.84 182.995 250.163 183.023C252.198 140.542 242.108 95.401 204.673 69.255C199.605 65.7165 185.493 59.9422 177.706 58.5656C174.34 43.1089 157.935 11.2716 141.529 13.5259C125.123 15.7802 129.091 31.8467 123.847 40.91C119.112 27.7538 113.018 -1.83835 92.7929 0.0925782C70.3299 2.236 67.3799 39.2285 67.9162 56.6346C59.7227 59.5264 53.2492 60.7737 45.9804 66.2708C25.8664 81.4873 17.6266 105.398 12.5865 128.624C9.44226 143.111 9.39606 152.387 8.24008 166.337C7.87939 170.68 7.74994 176.371 7.54648 180.935C7.46326 182.801 7.41702 184.963 7.40778 186.552C7.31531 197.574 7.21356 207.718 8.04587 218.934V218.925Z" fill="white"/>
<path d="M66.0294 540.503C49.6053 540.882 31.8125 540.614 15.8138 541.261C9.73794 541.501 8.06408 545.363 8.58195 550.454C8.85939 553.161 10.3205 557.355 11.1251 560.108C11.6985 562.058 12.725 563.056 15.0739 562.954C27.281 562.427 40.5332 561.818 52.7865 561.088C54.9135 560.958 55.7181 560.404 56.7261 558.593C59.9074 552.856 62.9314 546.435 66.0294 540.513V540.503Z" fill="#002B21"/>
<path d="M170.428 538.914C180.499 538.36 192.281 538.554 202.583 538.23C203.841 538.193 204.617 538.461 205.403 539.034C210.249 542.573 212.737 547.802 212.469 553.41C212.321 556.486 211.156 558.741 209.815 560.672C208.483 562.603 207.549 563.028 205.339 562.991C195.434 562.843 184.559 562.492 174.747 562.085C172.157 561.984 171.085 560.995 170.243 558.759C168.81 554.953 166.701 549.631 165.665 545.834C164.63 542.037 166.054 539.145 170.428 538.905V538.914Z" fill="#002B21"/>
<path d="M78.4586 164.018C90.9431 163.353 96.2976 183.882 96.0942 194.257C95.9369 202.507 92.7095 220.181 81.5566 220.459C70.4037 220.736 65.3636 202.36 64.9567 193.453C64.5313 184.187 66.5381 164.656 78.4493 164.018H78.4586Z" fill="#0B3F34"/>
<path d="M161.31 162.993C148.344 164.194 145.034 182.884 146.097 193.823C146.966 202.794 151.895 218.639 163.511 218.555C175.699 218.463 181.71 201.131 181.415 190.783C181.1 179.78 174.275 161.792 161.31 163.002V162.993Z" fill="#0B3F34"/>
<path d="M152.154 148.414C169.198 147.296 180.462 152.71 190.894 166.143C187.731 144.459 170.659 136.449 152.154 148.414Z" fill="#0B3F34"/>
<path d="M59.7224 164.305C64.707 156.23 69.4881 149.569 79.5682 148.404C82.583 148.053 86.0602 149.476 89.0103 150.206C74.8333 133.973 58.7606 144.921 59.7224 164.305Z" fill="#0B3F34"/>
<path d="M98.887 247.372C99.8117 259.475 108.801 266.681 120.73 267.281C127.879 267.642 133.326 264.14 138.079 259.29C134.26 261.045 130.625 262.764 126.214 262.44C114.164 261.544 105.564 254.67 104.334 242.484C103.835 237.569 106.239 234.326 108.384 230.409C102.974 234.834 98.3043 239.685 98.887 247.381V247.372Z" fill="#0B3F34"/>
<path d="M104.334 242.475C105.564 254.661 114.155 261.535 126.224 262.431C130.644 262.754 134.241 261.054 138.116 259.262C140.336 255.335 142.583 252.074 142.121 247.214C140.955 235.075 132.42 228.118 120.388 227.222C115.986 226.898 112.324 228.607 108.431 230.39C106.202 234.335 103.844 237.56 104.334 242.475Z" fill="#039D9D"/>
<path d="M-3.23746e-05 329.413L0.02771 329.385V329.284C0.0184621 329.367 -3.23746e-05 329.413 -3.23746e-05 329.413Z" fill="white"/>
<path d="M30.0647 317.245C33.4309 322.096 35.7428 326.133 37.3057 329.108C39.0628 332.453 40.7921 336.185 44.8612 338.171C45.6657 338.569 46.3778 338.8 46.868 338.938C47.0807 338.726 47.7835 338.088 48.81 338.061C49.1522 338.051 49.4389 338.107 49.67 338.181C51.2514 337.395 53.138 336.629 55.339 336.056C61.7107 334.411 67.2502 335.335 70.4592 336.167C70.4869 336.157 70.5054 336.157 70.5054 336.157L107.145 302.907C100.265 302.592 91.9234 302.611 84.3031 302.177C62.2378 303.369 49.929 307.545 44.2693 310.141L44.2878 310.113C38.36 311.462 33.2552 314.751 30.0739 317.245H30.0647Z" fill="#039D9D"/>
<path d="M184.133 317.116C187.814 318.474 190.653 319.537 190.875 319.62C188.878 318.613 186.63 317.735 184.133 317.116Z" fill="#039D9D"/>
<path d="M46.0357 425.756C70.2835 421.451 93.8654 419.197 118.65 420.139C131.624 420.629 144.682 422.153 157.62 424.324C159.793 424.703 161.948 425.082 164.103 425.488C166.84 425.987 169.577 426.532 172.296 427.077C174.83 427.595 177.355 428.131 179.861 428.685C178.298 421.321 176.744 413.949 175.191 406.576C172.86 395.573 170.53 384.569 168.199 373.556C166.202 364.179 164.214 354.783 162.198 345.415C162.198 345.415 163.474 330.586 173.387 339.409C175.135 340.962 176.264 341.654 176.939 341.738C177.198 341.525 177.475 341.313 177.762 341.109C182.45 337.663 189.405 335.289 195.018 333.801C200.206 332.425 204.238 331.815 204.238 331.815C204.238 331.815 203.637 330.716 202.389 329.099C200.853 327.112 198.32 324.341 194.676 321.865C193.52 321.079 192.262 320.313 190.875 319.629H190.866C190.644 319.546 187.805 318.483 184.124 317.125C184.115 317.125 184.106 317.125 184.096 317.125C184.022 317.097 183.948 317.079 183.865 317.061C183.551 316.931 183.236 316.802 182.913 316.682C182.848 316.654 182.783 316.636 182.718 316.608C182.469 316.506 182.21 316.414 181.96 316.312C177.743 314.695 173.563 313.171 169.383 311.776C168.403 311.443 167.571 311.166 166.969 310.972C166.969 310.972 166.963 310.972 166.951 310.972C155.955 307.387 144.913 304.616 133.159 303.064H133.141C132.947 303.285 132.734 303.507 132.521 303.72C132.087 304.163 131.652 304.579 131.199 304.976C130.977 305.17 130.755 305.364 130.515 305.54C130.052 305.9 129.571 306.242 129.09 306.556C128.6 306.87 128.101 307.156 127.592 307.415C125.4 308.515 122.996 309.087 120.342 309.004C119.695 308.976 119.075 308.93 118.492 308.847C117.891 308.755 117.327 308.644 116.791 308.487C116.523 308.422 116.254 308.321 115.986 308.247C114.414 307.702 113.008 306.898 111.658 305.891C110.53 305.05 109.439 304.061 108.32 302.962C107.931 302.934 107.534 302.925 107.136 302.916L66.982 336.157C61.7292 358.608 56.8186 381.105 51.3809 403.527C49.5868 410.909 47.8667 418.393 46.0357 425.775V425.756Z" fill="#039D9D"/>
<path d="M16.2669 355.883L16.3131 355.975C18.6991 360.16 22.3612 363.846 27.0776 366.812C40.8384 375.469 65.9647 382.241 79.4018 386.232C79.9197 386.389 80.4098 386.528 80.8907 386.676C94.7254 390.852 101.56 386.934 106.202 377.843C109.957 370.48 101.467 364.946 96.9912 361.463C87.096 358.183 78.7452 355.79 70.4129 353.702C63.9764 352.085 57.5399 350.616 50.3914 349.083H50.3729C43.5387 346.523 46.2114 339.936 46.6553 338.957C46.7292 338.948 46.794 338.938 46.868 338.929C45.1294 336.305 43.0948 333.441 41.5412 330.771C38.4617 325.477 36.085 320.257 33.9025 314.742C8.9149 327.833 15.7028 353.868 16.2669 355.883Z" fill="white"/>
<path d="M87.9464 322.71L117.772 319.657C121.145 319.311 124.16 321.764 124.506 325.134L131.821 396.464C132.167 399.834 129.712 402.846 126.339 403.192L96.5135 406.245C93.1398 406.59 90.1247 404.138 89.779 400.767L82.4637 329.438C82.118 326.067 84.5727 323.055 87.9464 322.71Z" fill="#005654"/>
<path d="M124.143 364.188C133.89 360.483 142.12 357.73 150.36 355.282C156.723 353.388 163.085 351.642 170.16 349.803H170.178C177.438 346.727 173.397 339.409 173.397 339.409C174.599 338.402 175.81 337.497 177.04 336.684C177.762 336.222 178.492 335.769 179.223 335.363C179.963 334.947 180.712 334.559 181.461 334.18C182.959 333.46 184.503 332.804 186.094 332.222C187 331.889 187.934 331.575 188.868 331.279C190.773 330.679 192.762 330.143 194.861 329.607C196.109 329.284 197.839 329.247 199.512 329.33C200.003 329.367 200.493 329.394 200.955 329.431C201.214 329.45 201.464 329.478 201.704 329.496C202.213 329.551 202.694 329.616 203.128 329.681C211.229 344.057 206.837 357.813 194.223 366.516C180.85 375.755 156.038 383.608 142.786 388.182C142.278 388.357 141.788 388.523 141.325 388.69C127.675 393.466 120.693 389.845 115.653 380.966C111.584 373.769 119.824 367.874 124.143 364.207V364.188Z" fill="white"/>
<path d="M182.913 316.663C183.236 316.783 183.551 316.913 183.865 317.042C183.948 317.061 184.022 317.079 184.096 317.107C183.708 316.959 183.31 316.811 182.903 316.663H182.913Z" fill="#039D9D"/>
<path d="M118.141 360.289L118.317 360.668C118.27 360.539 118.206 360.409 118.141 360.289Z" fill="white"/>
<path d="M113.609 363.209C113.748 363.403 113.915 363.579 114.1 363.736L113.609 363.209Z" fill="white"/>
<path d="M113.323 362.71C113.378 362.839 113.443 362.959 113.508 363.07C113.443 362.95 113.388 362.821 113.323 362.71Z" fill="white"/>
<path d="M93.4678 363.237L93.5787 362.775C93.5325 362.922 93.4862 363.08 93.4678 363.237Z" fill="white"/>
<path d="M93.44 363.939C93.5879 365.417 94.9196 366.498 96.3993 366.341C97.1391 366.267 97.7772 365.897 98.2119 365.362L98.554 364.789C98.6188 364.502 98.6927 364.225 98.7945 363.948C99.7747 361.112 102.327 358.95 105.518 358.617C108.801 358.285 111.815 359.985 113.314 362.701C113.378 362.821 113.443 362.941 113.498 363.061C113.526 363.107 113.554 363.154 113.591 363.2L114.081 363.726H114.09C114.627 364.17 115.33 364.401 116.069 364.327C117.549 364.179 118.631 362.849 118.474 361.37C118.446 361.13 118.391 360.899 118.307 360.687V360.659L118.113 360.28L114.09 351.882L113.859 351.716L111.908 350.302L110.142 351.762L109.411 352.372L108.301 351.79L106.923 351.06L106.544 350.857L105.314 351.817L103.881 352.935L103.048 352.464L101.976 351.854L101.18 351.402L100.616 351.864L98.6835 353.462L96.2883 351.919C96.2513 351.993 96.2236 352.076 96.1958 352.15L96.1033 352.436C96.0664 352.575 96.0386 352.714 96.0201 352.852L93.5694 362.775L93.4585 363.237C93.4215 363.468 93.4122 363.699 93.44 363.939Z" fill="white"/>
<path d="M96.6675 350.672L97.0004 350.884L98.5355 351.873L100.811 349.997L101.032 349.812L103.742 351.337L106.405 349.258L107.626 349.905L109.272 350.773L111.547 348.898C112.315 349.175 112.971 349.711 113.397 350.404L112.925 349.554L106.905 338.79L106.692 338.402C105.989 337.285 104.695 336.61 103.289 336.749C101.883 336.887 100.755 337.82 100.293 339.058V339.068L100.172 339.465L96.686 350.672H96.6675Z" fill="white"/>
</g>
<defs>
<clipPath id="clip0_26_139">
<rect width="277" height="563" fill="white" transform="matrix(-1 0 0 1 277 0)"/>
</clipPath>
</defs>
</svg>
