<svg width="246" height="500" viewBox="0 0 246 500" fill="none" xmlns="http://www.w3.org/2000/svg">
<g clip-path="url(#clip0_17_1387)">
<path d="M40.8837 378.114H40.8919C62.4178 374.29 83.3688 372.288 105.371 373.125C116.894 373.56 128.49 374.914 139.988 376.85C141.91 377.187 143.832 377.515 145.746 377.876C148.168 378.327 150.608 378.803 153.022 379.287C155.272 379.747 157.506 380.223 159.74 380.715C158.352 374.175 156.973 367.628 155.601 361.08C153.531 351.316 151.462 341.536 149.384 331.763C147.618 323.435 145.844 315.091 144.054 306.771C150.074 309.019 155.897 308.494 161.917 310.414C162.541 309.134 163.206 307.936 163.904 306.812C165.539 304.203 167.403 301.963 169.53 299.829C170.13 299.214 170.762 298.623 171.411 298.032C172.725 296.835 174.121 295.661 175.608 294.447C176.495 293.717 177.866 293.044 179.254 292.478C179.656 292.313 180.067 292.158 180.453 292.018C180.675 291.936 180.88 291.862 181.077 291.788C181.521 291.624 181.948 291.477 182.334 291.337C182.112 291.116 181.915 290.976 181.619 290.787C175.287 286.718 168.61 283.592 161.596 280.9C147.29 275.419 133.443 271.136 118.257 269.126L118.249 269.134C118.068 269.331 117.887 269.528 117.699 269.717C117.313 270.111 116.927 270.48 116.524 270.833C116.327 271.013 116.13 271.177 115.925 271.333C115.506 271.653 115.079 271.957 114.652 272.236C114.216 272.515 113.781 272.769 113.321 272.999C111.375 273.975 109.239 274.484 106.89 274.41C106.316 274.385 105.765 274.344 105.248 274.279C104.714 274.197 104.221 274.09 103.737 273.959C103.499 273.893 103.26 273.811 103.022 273.737C101.626 273.261 100.378 272.539 99.1786 271.645C98.1766 270.898 97.2075 270.02 96.2137 269.044C95.8688 269.019 95.5156 269.011 95.1625 269.003L59.5104 298.533C54.8455 318.471 50.4845 338.451 45.6553 358.356C44.062 364.92 42.5344 371.566 40.9083 378.114H40.8837Z" fill="#008E8E"/>
<path d="M169.53 299.829C167.386 301.963 165.522 304.211 163.904 306.812C165.539 304.203 167.403 301.963 169.53 299.829Z" fill="white"/>
<path d="M105.379 373.117C83.3688 372.288 62.4178 374.282 40.8918 378.114C32.8596 412.116 26.0183 446.232 19.0867 480.472C32.4162 480.07 45.1954 480.628 58.8862 479.635C63.0091 464.078 77.9401 433.703 83.993 423.455C90.5058 412.436 94.1441 405.281 100.657 405.264C117.658 405.232 133.016 450.187 140.497 462.191C141.91 464.456 146.542 475.13 148.341 478.56C148.965 478.855 149.45 478.708 149.967 478.708C159.486 478.708 168.98 478.618 178.498 478.609C178.474 478.404 178.457 478.224 178.425 478.019C174.868 452.69 169.538 427.672 164.331 402.606C162.836 395.402 161.284 387.976 159.732 380.715C141.894 376.776 123.538 373.798 105.379 373.117Z" fill="white"/>
<path d="M7.14543 194.427C8.25417 208.269 17.8468 228.232 26.6181 235.781C41.3931 248.499 52.1601 249.516 68.1752 255.916C77.1683 259.51 87.8122 261.856 97.3227 264.802C97.5609 266.205 97.6923 267.682 97.8894 269.118C97.3473 269.101 96.8299 269.044 96.2796 269.044C99.3102 272.154 102.316 274.279 106.882 274.41C111.441 274.541 115.21 272.49 118.265 269.134C116.804 268.929 115.317 268.806 113.847 268.675C114.2 267.354 114.586 265.951 114.89 264.671C137.738 261.405 158.024 254.078 177.735 241.336C188.042 234.673 198.661 224.852 207.178 215.44C216.163 217.885 225.082 215.572 232.736 211.174C240.769 206.562 245.458 193.91 245.869 187.568C246.559 176.934 244.768 172.331 238.839 166.432C233.771 161.394 228.096 162.518 222.166 162.542C223.973 124.815 215.013 84.7255 181.767 61.5052C177.267 58.3627 164.734 53.2345 157.819 52.012C154.829 38.2849 140.26 10.0102 125.69 12.0123C111.12 14.0143 114.644 28.2829 109.987 36.3321C105.782 24.6481 100.37 -1.63273 82.4081 0.0821256C62.4591 1.9857 59.8392 34.8388 60.3155 50.2971C53.0389 52.8653 47.2899 53.973 40.8346 58.855C22.9716 72.3687 15.6539 93.6034 11.1779 114.231C8.38554 127.096 8.3445 135.334 7.31789 147.724C6.99759 151.58 6.88261 156.635 6.70193 160.688C6.62801 162.345 6.58696 164.265 6.57874 165.677C6.49661 175.465 6.40627 184.474 7.14543 194.435V194.427Z" fill="white"/>
<path d="M58.6399 480.021C44.0538 480.357 28.2523 480.119 14.044 480.694C8.64818 480.907 7.16165 484.337 7.62157 488.858C7.86795 491.262 9.16559 494.987 9.88011 497.432C10.3893 499.163 11.3009 500.049 13.387 499.959C24.228 499.491 35.997 498.95 46.8791 498.302C48.768 498.187 49.4825 497.694 50.3778 496.086C53.203 490.991 55.8886 485.288 58.6399 480.029V480.021Z" fill="#002B21"/>
<path d="M151.355 478.609C160.299 478.117 170.762 478.289 179.911 478.002C181.028 477.969 181.718 478.207 182.416 478.716C186.72 481.859 188.929 486.503 188.691 491.483C188.559 494.215 187.524 496.217 186.334 497.932C185.151 499.647 184.321 500.025 182.359 499.992C173.563 499.861 163.904 499.549 155.19 499.188C152.891 499.097 151.938 498.219 151.191 496.234C149.918 492.853 148.045 488.127 147.125 484.755C146.205 481.383 147.47 478.815 151.355 478.601V478.609Z" fill="#002B21"/>
<path d="M41.3765 146.083C52.4638 145.492 57.2191 163.724 57.0384 172.938C56.8988 180.265 54.0325 195.961 44.1278 196.208C34.223 196.454 29.747 180.134 29.3857 172.224C29.0079 163.995 30.7901 146.649 41.3682 146.083H41.3765Z" fill="#0B3F34"/>
<path d="M38.9782 136.015C54.2213 135.195 60.6684 160.278 60.496 172.922C60.3563 182.989 56.1842 204.585 42.8301 204.897C28.9421 205.225 23.0864 182.817 22.5197 171.945C21.9366 160.63 24.4415 136.795 38.9865 136.007L38.9782 136.015Z" stroke="#0B3F34" stroke-width="5.23" stroke-miterlimit="10"/>
<path d="M143.257 144.754C131.743 145.82 128.802 162.419 129.747 172.134C130.519 180.101 134.896 194.173 145.212 194.099C156.036 194.017 161.375 178.624 161.112 169.435C160.833 159.662 154.771 143.687 143.257 144.762V144.754Z" fill="#0B3F34"/>
<path d="M144.588 134.538C128.416 136.048 124.302 159.342 125.616 172.995C126.692 184.195 132.892 203.945 147.372 203.822C162.566 203.691 170.023 182.087 169.661 169.188C169.275 155.478 160.767 133.037 144.596 134.538H144.588Z" stroke="#0B3F34" stroke-width="3.8" stroke-miterlimit="10"/>
<path d="M141.13 113.812C156.266 112.82 166.269 117.628 175.534 129.558C172.725 110.301 157.564 103.187 141.13 113.812Z" fill="#0B3F34"/>
<path d="M20.5651 126.407C24.9918 119.236 29.2378 113.32 38.1899 112.286C40.8673 111.974 43.9553 113.238 46.5752 113.886C33.9849 99.4699 19.7109 109.193 20.5651 126.407Z" fill="#0B3F34"/>
<path d="M217.181 163.461C217.181 164.864 218.249 165.931 219.653 165.931C221.058 165.931 222.133 164.864 222.133 163.461C222.133 162.058 221.066 160.991 219.661 160.991C218.257 160.991 217.181 162.058 217.181 163.461Z" fill="#0B3F34"/>
<path d="M212.138 166.776C212.138 168.179 213.198 169.246 214.602 169.246C216.007 169.246 217.083 168.179 217.083 166.776C217.083 165.373 216.015 164.306 214.619 164.306C213.214 164.306 212.138 165.373 212.138 166.776Z" fill="#0B3F34"/>
<path d="M205.626 167.711C205.626 169.114 206.693 170.181 208.098 170.181C209.502 170.181 210.578 169.114 210.578 167.711C210.578 166.308 209.51 165.242 208.106 165.242C206.701 165.242 205.626 166.308 205.626 167.711Z" fill="#0B3F34"/>
<path d="M199.638 167.711C199.638 169.114 200.706 170.181 202.11 170.181C203.515 170.181 204.591 169.114 204.591 167.711C204.591 166.308 203.523 165.242 202.119 165.242C200.714 165.242 199.647 166.308 199.638 167.711Z" fill="#0B3F34"/>
<path d="M192.6 165.988C192.6 167.391 193.668 168.458 195.072 168.458C196.476 168.458 197.544 167.391 197.552 165.988C197.552 164.585 196.485 163.519 195.08 163.519C193.676 163.519 192.6 164.585 192.6 165.988Z" fill="#0B3F34"/>
<path d="M186.35 165.988C186.35 167.391 187.418 168.458 188.822 168.458C190.226 168.458 191.294 167.391 191.302 165.988C191.302 164.585 190.235 163.519 188.83 163.519C187.426 163.519 186.358 164.585 186.35 165.988Z" fill="#0B3F34"/>
<path d="M179.969 166.801C179.969 168.204 181.036 169.27 182.441 169.27C183.845 169.27 184.921 168.204 184.921 166.801C184.921 165.398 183.853 164.331 182.449 164.331C181.044 164.331 179.977 165.398 179.969 166.801Z" fill="#0B3F34"/>
<path d="M173.062 167.736C173.062 169.139 174.121 170.206 175.525 170.206C176.93 170.206 178.006 169.139 178.006 167.736C178.006 166.333 176.938 165.266 175.534 165.266C174.129 165.266 173.053 166.333 173.053 167.736H173.062Z" fill="#0B3F34"/>
<path d="M14.3479 166.907C14.3479 168.31 15.4073 169.377 16.82 169.377C18.2244 169.377 19.3002 168.31 19.3002 166.907C19.3002 165.504 18.2326 164.438 16.8282 164.438C15.4238 164.438 14.3479 165.504 14.3479 166.907Z" fill="#0B3F34"/>
<path d="M9.32163 164.922C9.32163 166.325 10.3811 167.391 11.7937 167.391C13.1981 167.391 14.274 166.325 14.274 164.922C14.274 163.519 13.2145 162.452 11.8019 162.452C10.3975 162.452 9.32163 163.519 9.32163 164.922Z" fill="#0B3F34"/>
<path d="M6.57851 165.734C7.94184 165.545 8.97666 164.667 8.98487 163.231C8.99309 161.796 8.01576 160.983 6.7017 160.721C6.63599 162.395 6.59493 164.06 6.57851 165.734Z" fill="#0B3F34"/>
<path d="M119.407 169.804C111.03 164.749 102.004 161.131 92.1319 161.394C82.2601 161.656 74.4003 165.094 66.3682 170.263" stroke="#0B3F34" stroke-width="7.61" stroke-miterlimit="10" stroke-linecap="round"/>
<path d="M78.6464 219.69C79.4677 230.439 87.4506 236.839 98.0452 237.372C104.394 237.692 109.231 234.583 113.453 230.275C110.061 231.834 106.833 233.36 102.915 233.073C92.214 232.277 84.5761 226.172 83.4838 215.35C83.0403 210.985 85.1756 208.105 87.081 204.626C82.2765 208.556 78.129 212.864 78.6464 219.699V219.69Z" fill="#0B3F34"/>
<path d="M83.4838 215.342C84.5761 226.164 92.2058 232.269 102.924 233.065C106.849 233.352 110.044 231.842 113.485 230.25C115.456 226.763 117.452 223.867 117.042 219.551C116.007 208.769 108.426 202.591 97.7413 201.795C93.832 201.508 90.5797 203.026 87.1221 204.61C85.1428 208.113 83.0485 210.977 83.4838 215.342Z" fill="#039D9D"/>
<path d="M131.603 348.731C138.067 342.11 143.668 336.81 149.384 331.755C153.794 327.858 158.278 324.067 163.28 319.94H163.288C167.986 314.738 161.991 310.365 161.991 310.365C162.582 309.109 163.223 307.92 163.904 306.804C164.307 306.155 164.725 305.524 165.161 304.925C165.596 304.309 166.056 303.719 166.524 303.136C167.46 301.995 168.462 300.888 169.522 299.829C170.121 299.222 170.762 298.623 171.403 298.032C172.717 296.834 174.113 295.661 175.599 294.447C176.486 293.717 177.858 293.044 179.246 292.478C179.648 292.322 180.059 292.166 180.445 292.018C180.667 291.936 180.872 291.862 181.069 291.788C181.496 291.641 181.915 291.518 182.285 291.403C194.193 299.952 195.811 312.67 188.904 324.403C181.595 336.842 164.553 352.44 155.593 361.08C155.248 361.417 154.919 361.728 154.607 362.04C145.401 370.984 138.42 370.68 131.036 365.412C125.057 361.138 129.492 353.31 131.595 348.74L131.603 348.731Z" fill="white"/>
<path d="M1.08411 305.04V305.13C1.24837 309.405 2.63634 313.803 5.14127 318.069C12.4507 330.508 29.4924 346.106 38.4526 354.746C38.7976 355.082 39.1261 355.394 39.4382 355.706C48.6448 364.649 55.6258 364.346 63.0091 359.078C68.9881 354.803 64.5531 346.976 62.4506 342.405C55.9871 335.784 50.3859 330.483 44.6698 325.429C40.2595 321.532 35.7753 317.741 30.7736 313.614H30.7654C26.4208 308.797 31.2253 304.703 31.9727 304.104C32.0384 304.129 32.0877 304.145 32.1534 304.17C31.8495 301.396 31.4224 298.303 31.291 295.554C31.0282 290.123 31.291 285.036 31.8249 279.801C6.76741 279.924 1.4701 303.226 1.09231 305.04H1.08411Z" fill="white"/>
<path d="M2.06046e-05 292.551L0.0246582 292.527V292.437C0.0164453 292.51 2.06046e-05 292.551 2.06046e-05 292.551Z" fill="white"/>
<path d="M20.1461 281.745C22.4457 284.453 24.9671 287.94 27.1928 292.281C30.2315 298.229 30.6915 302.258 31.4388 306.713C33.9766 306.041 36.3419 305.762 38.4444 304.736L59.4447 298.549L59.4858 298.541L95.1378 269.011C88.4443 268.732 80.3218 268.749 72.9138 268.363C51.4372 269.421 39.4628 273.13 33.9602 275.436L33.9848 275.411C28.2194 276.609 23.2506 279.53 20.1461 281.745Z" fill="#008E8E"/>
<path d="M55.7079 375.775L88.4854 380.28L91.4667 315.033L62.4178 302.898L55.7079 375.775Z" fill="#003527"/>
<path d="M88.4854 380.28L91.6474 380.715L132.046 377.777V310.069L93.873 316.042L91.4667 315.033L88.4854 380.28Z" fill="#002B21"/>
</g>
<defs>
<clipPath id="clip0_17_1387">
<rect width="246" height="500" fill="white" transform="matrix(-1 0 0 1 246 0)"/>
</clipPath>
</defs>
</svg>
