<svg width="106" height="105" viewBox="0 0 106 105" fill="none" xmlns="http://www.w3.org/2000/svg">
<g clip-path="url(#clip0_16_512)">
<path d="M72.5348 0.517456H0.521362V104.487H69.2629C67.4562 104.487 65.991 103.033 65.991 101.239C65.991 99.446 67.4562 97.9916 69.2629 97.9916H72.5348V72.0907L65.9865 65.5017L72.5348 59.002V0.517456ZM56.1663 97.9916H16.8854C15.0787 97.9916 13.6135 96.5373 13.6135 94.744C13.6135 92.9506 15.0787 91.4963 16.8854 91.4963H56.1663C57.973 91.4963 59.4382 92.9506 59.4382 94.744C59.4382 96.5373 57.973 97.9916 56.1663 97.9916ZM56.1663 78.4968H16.8854C15.0787 78.4968 13.6135 77.0425 13.6135 75.2492C13.6135 73.4558 15.0787 72.0015 16.8854 72.0015H56.1663C57.973 72.0015 59.4382 73.4558 59.4382 75.2492C59.4382 77.0425 57.973 78.4968 56.1663 78.4968ZM56.1663 59.002H16.8854C15.0787 59.002 13.6135 57.5477 13.6135 55.7543C13.6135 53.961 15.0787 52.5067 16.8854 52.5067H56.1663C57.973 52.5067 59.4382 53.961 59.4382 55.7543C59.4382 57.5477 57.973 59.002 56.1663 59.002ZM56.1663 39.5071H16.8854C15.0787 39.5071 13.6135 38.0528 13.6135 36.2595C13.6135 34.4661 15.0787 33.0118 16.8854 33.0118H56.1663C57.973 33.0118 59.4382 34.4661 59.4382 36.2595C59.4382 38.0528 57.973 39.5071 56.1663 39.5071ZM52.8944 20.0123H20.1618C16.5438 20.0123 13.6135 17.1037 13.6135 13.5125C13.6135 9.92137 16.5438 7.01276 20.1618 7.01276H52.8944C56.5124 7.01276 59.4427 9.92137 59.4427 13.5125C59.4427 17.1037 56.5124 20.0123 52.8944 20.0123Z" fill="white" stroke="white" stroke-width="2.31" stroke-miterlimit="10"/>
<path d="M59.4382 13.5126C59.4382 17.1037 56.5078 20.0123 52.8899 20.0123H20.1618C16.5438 20.0123 13.6135 17.1037 13.6135 13.5126C13.6135 9.92143 16.5438 7.01282 20.1618 7.01282H52.8944C56.5123 7.01282 59.4427 9.92143 59.4427 13.5126H59.4382Z" stroke="white" stroke-width="2.31" stroke-miterlimit="10"/>
<path d="M59.4382 36.255C59.4382 38.0484 57.973 39.5027 56.1663 39.5027H16.8854C15.0786 39.5027 13.6135 38.0484 13.6135 36.255C13.6135 34.4617 15.0786 33.0074 16.8854 33.0074H56.1663C57.973 33.0074 59.4382 34.4617 59.4382 36.255Z" stroke="white" stroke-width="2.31" stroke-miterlimit="10"/>
<path d="M59.4382 55.7499C59.4382 57.5433 57.973 58.9976 56.1663 58.9976H16.8854C15.0786 58.9976 13.6135 57.5433 13.6135 55.7499C13.6135 53.9566 15.0786 52.5023 16.8854 52.5023H56.1663C57.973 52.5023 59.4382 53.9566 59.4382 55.7499Z" stroke="white" stroke-width="2.31" stroke-miterlimit="10"/>
<path d="M59.4382 75.2447C59.4382 77.0381 57.973 78.4924 56.1663 78.4924H16.8854C15.0786 78.4924 13.6135 77.0381 13.6135 75.2447C13.6135 73.4514 15.0786 71.9971 16.8854 71.9971H56.1663C57.973 71.9971 59.4382 73.4514 59.4382 75.2447Z" stroke="white" stroke-width="2.31" stroke-miterlimit="10"/>
<path d="M59.4382 94.7395C59.4382 96.5329 57.973 97.9872 56.1663 97.9872H16.8854C15.0786 97.9872 13.6135 96.5329 13.6135 94.7395C13.6135 92.9462 15.0786 91.4919 16.8854 91.4919H56.1663C57.973 91.4919 59.4382 92.9462 59.4382 94.7395Z" stroke="white" stroke-width="2.31" stroke-miterlimit="10"/>
<path d="M105.267 101.239C105.267 103.033 103.802 104.487 101.996 104.487H69.2629C67.4562 104.487 65.991 103.033 65.991 101.239C65.991 99.446 67.4562 97.9917 69.2629 97.9917H101.996C103.802 97.9917 105.267 99.446 105.267 101.239Z" stroke="white" stroke-width="2.31" stroke-miterlimit="10"/>
<path d="M69.2584 97.9872H65.9865" stroke="white" stroke-width="2.31" stroke-miterlimit="10"/>
<path d="M105.267 65.4973L98.7191 71.997L92.1753 65.4973V91.4919H79.0786V65.5508L72.5348 72.0907L65.9865 65.4973L72.5348 58.9975L85.627 46.0024L92.1753 52.5022L105.267 65.4973Z" stroke="white" stroke-width="2.31" stroke-miterlimit="10"/>
<path d="M98.7191 39.5027L85.627 26.5076L72.5349 39.5027L78.8135 46.0025L85.627 39.5027L92.1753 46.0025L98.7191 39.5027Z" fill="white"/>
</g>
<defs>
<clipPath id="clip0_16_512">
<rect width="106" height="105" fill="white"/>
</clipPath>
</defs>
</svg>
