<svg width="90" height="111" viewBox="0 0 90 111" fill="none" xmlns="http://www.w3.org/2000/svg">
<g clip-path="url(#clip0_240_173)">
<path d="M72.2401 27.6574C72.2401 30.0604 71.9428 32.3848 71.3813 34.597C70.7537 37.0674 69.8178 39.3918 68.5846 41.5366C67.6927 43.1311 66.6247 44.6358 65.4246 46.017C64.6758 46.9041 63.8721 47.7238 63.0022 48.4874C61.648 49.7114 60.1835 50.7894 58.609 51.7102C56.506 52.9678 54.2158 53.9223 51.8045 54.5624C49.6355 55.1238 47.3563 55.4382 45 55.4382C42.6438 55.4382 40.3646 55.1351 38.1955 54.5624C35.7732 53.9223 33.494 52.9678 31.391 51.7102C29.8275 50.8006 28.3521 49.7114 26.9978 48.4874C26.128 47.7238 25.3242 46.9041 24.5755 46.017C23.3754 44.6358 22.3184 43.1423 21.4155 41.5366C20.1823 39.3918 19.2464 37.0561 18.6188 34.597C18.0683 32.3848 17.76 30.0604 17.76 27.6574C17.76 25.2543 18.0573 22.9299 18.6188 20.7178C19.2464 18.2473 20.1823 15.9229 21.4155 13.7781C22.3074 12.1836 23.3754 10.6789 24.5755 9.29772C25.3242 8.41062 26.128 7.5909 26.9978 6.82731C28.3521 5.60334 29.8165 4.52534 31.391 3.60455C33.494 2.34689 35.7842 1.39241 38.1955 0.752352C39.2195 0.482853 40.2655 0.280728 41.3445 0.13475H41.3886C42.5887 0.0449165 43.7889 0 45.0111 0C46.2332 0 47.4334 0.0449165 48.6335 0.13475H48.6776C49.7456 0.280728 50.7916 0.482853 51.8266 0.752352C54.2489 1.39241 56.5281 2.34689 58.6311 3.60455C60.1946 4.51411 61.67 5.60334 63.0243 6.82731C63.8941 7.5909 64.6979 8.41062 65.4466 9.29772C66.6467 10.6789 67.7037 12.1724 68.6066 13.7781C69.8398 15.9229 70.7757 18.2586 71.4033 20.7178C71.9538 22.9299 72.2621 25.2543 72.2621 27.6574H72.2401Z" fill="white"/>
<path d="M90 86.7156C89.2072 87.8947 88.3814 89.0401 87.4896 90.1517C86.9721 90.8255 86.4215 91.488 85.86 92.1393C84.3626 93.9023 82.733 95.553 81.0044 97.1026C80.3658 97.6753 79.7161 98.2367 79.0445 98.7757C76.9084 100.539 74.6183 102.122 72.24 103.548C71.9537 103.717 71.6674 103.874 71.3702 104.042C69.4543 105.12 67.4724 106.097 65.4245 106.939C63.2224 107.849 60.9542 108.612 58.62 109.219C56.4069 109.814 54.1387 110.252 51.8155 110.555C49.5913 110.847 47.3122 110.982 45.011 110.982C42.7098 110.982 40.4306 110.836 38.2065 110.555C35.8832 110.252 33.6151 109.814 31.402 109.219C29.0677 108.612 26.7996 107.849 24.5975 106.939C22.5495 106.086 20.5676 105.12 18.6518 104.042C18.3545 103.874 18.0682 103.717 17.7819 103.548C15.3927 102.122 13.1135 100.539 10.9774 98.7757C10.3058 98.2367 9.65618 97.6753 9.01757 97.1026C7.29993 95.5642 5.68138 93.9023 4.16193 92.1393C3.60039 91.488 3.04987 90.8255 2.53237 90.1517C1.65153 89.0401 0.825741 87.8947 0.0219727 86.7156C0.825741 85.5141 1.67355 84.3463 2.57641 83.2121C3.0829 82.5608 3.6114 81.9096 4.16193 81.2807C5.69239 79.4953 7.34397 77.8221 9.08363 76.2613C9.70022 75.6998 10.3388 75.1608 10.9774 74.6443C13.1135 72.8813 15.4037 71.2868 17.7819 69.8719C18.0902 69.681 18.4206 69.5014 18.7399 69.3217C20.6227 68.2549 22.5825 67.3004 24.5864 66.4807C26.7885 65.5712 29.0567 64.8076 31.3909 64.19C33.6041 63.6061 35.8722 63.1681 38.1954 62.8649C40.4196 62.573 42.6988 62.4382 45 62.4382C47.3012 62.4382 49.5803 62.5842 51.8045 62.8649C54.1277 63.1681 56.3958 63.6061 58.609 64.19C60.9432 64.8076 63.2114 65.5712 65.4135 66.4807C67.4284 67.3117 69.3773 68.2549 71.2601 69.3217C71.5794 69.5014 71.9097 69.681 72.218 69.8719C74.6072 71.2868 76.8864 72.8813 79.0225 74.6443C79.6611 75.1608 80.2997 75.6998 80.9163 76.2613C82.6669 77.8109 84.3075 79.4953 85.838 81.2807C86.3885 81.9096 86.917 82.5608 87.4235 83.2121C88.3264 84.3463 89.1742 85.5141 89.9779 86.7156H90Z" fill="white"/>
</g>
<defs>
<clipPath id="clip0_240_173">
<rect width="90" height="111" fill="white"/>
</clipPath>
</defs>
</svg>
