<svg width="327" height="530" viewBox="0 0 327 530" fill="none" xmlns="http://www.w3.org/2000/svg">
<g filter="url(#filter0_d_20_87)">
<path d="M223.48 387.25H223.47C221.95 387.01 220.43 386.78 218.92 386.56C217.41 386.33 215.9 386.12 214.39 385.92C212.38 385.65 210.37 385.39 208.36 385.16C206.45 384.94 204.55 384.73 202.64 384.55C196.52 383.95 190.4 383.54 184.25 383.33C182.76 383.28 181.27 383.24 179.77 383.22C175.95 383.15 172.12 383.17 168.26 383.27C168.01 383.27 167.76 383.28 167.51 383.29C165.4 383.35 163.28 383.43 161.15 383.55C160.33 383.59 159.51 383.64 158.69 383.7C158.11 383.74 157.54 383.78 156.97 383.82C156.36 383.86 155.75 383.91 155.14 383.96C154.86 383.98 154.59 384 154.31 384.02C153.3 384.11 152.3 384.2 151.29 384.3H151.28C149.09 384.51 146.9 384.76 144.71 385.03C143.58 385.17 142.45 385.32 141.32 385.47C140.57 385.58 139.81 385.68 139.05 385.8C138.48 385.88 137.92 385.96 137.36 386.05C136.75 386.14 136.13 386.23 135.51 386.34C128.72 387.4 121.95 388.71 115.25 390.2C113.09 390.67 110.94 391.16 108.79 391.67C113.15 367.87 117.78 344.04 123.18 320.43C116.54 323.67 110.21 327.36 104.07 331.46C103.58 329.53 103.01 327.71 102.33 325.98C102.01 325.17 101.67 324.38 101.3 323.61C101.16 323.31 101.02 323.02 100.86 322.73C100.82 322.64 100.78 322.56 100.73 322.47C100.57 322.15 100.4 321.84 100.22 321.53C100.21 321.51 100.2 321.49 100.19 321.47C100.03 321.19 99.87 320.91 99.7 320.63C99.63 320.51 99.56 320.4 99.49 320.28C99.31 320 99.14 319.73 98.96 319.46C98.74 319.12 98.51 318.79 98.28 318.47C98.04 318.14 97.81 317.82 97.56 317.5C97.11 316.91 96.63 316.33 96.12 315.75C95.89 315.48 95.66 315.22 95.41 314.96C94.93 314.42 94.41 313.89 93.87 313.37C93.52 313.02 93.15 312.68 92.78 312.34C92.23 311.83 91.58 311.33 90.87 310.86C90.31 310.49 89.72 310.13 89.13 309.78C88.87 309.62 88.6 309.48 88.32 309.33C87.79 309.03 87.26 308.75 86.77 308.49C87.02 308.29 87.29 308.1 87.58 307.9C93.76 303.49 100.5 298.98 107.23 295.67C120.97 288.92 134.54 284.64 149.54 282.23C149.9 282.61 150.27 282.97 150.65 283.32C150.93 283.57 151.21 283.81 151.5 284.03C151.51 284.05 151.53 284.06 151.54 284.06C151.83 284.3 152.12 284.51 152.42 284.72C152.83 285 153.24 285.26 153.67 285.49C154.1 285.72 154.54 285.94 154.98 286.12H154.99C155.44 286.31 155.89 286.48 156.35 286.61C156.7 286.71 157.06 286.8 157.43 286.87C157.6 286.91 157.78 286.94 157.96 286.96C158.14 287 158.32 287.02 158.51 287.04C158.53 287.05 158.56 287.05 158.58 287.04C158.79 287.07 159 287.09 159.21 287.1C159.67 287.13 160.14 287.14 160.62 287.12C161.17 287.1 161.69 287.05 162.19 286.97H162.2C163.21 286.82 164.14 286.56 165 286.2H165.01C165.23 286.11 165.44 286.01 165.66 285.9C165.87 285.8 166.08 285.7 166.28 285.58C166.47 285.48 166.66 285.37 166.85 285.25C166.87 285.24 166.9 285.22 166.92 285.21C167.11 285.1 167.3 284.97 167.48 284.84C167.64 284.74 167.8 284.62 167.96 284.51C168.38 284.2 168.79 283.86 169.2 283.51C169.69 283.09 170.17 282.65 170.66 282.17C170.72 282.11 170.79 282.05 170.85 281.99C202.82 284.33 204.46 310.99 204.46 310.99C208.74 330.25 214.01 349.3 218.79 368.42C220.36 374.73 221.89 380.98 223.48 387.25Z" fill="#039D9D"/>
<path d="M79.47 352.99C66.49 367.99 58.08 382.55 51.15 400.9C48.29 404.21 43.95 413.97 37.42 410.64C29.35 406.52 27.42 399.73 31.05 387.26C34.46 375.57 43.18 354.83 52.92 342.04C61.77 330.43 74.25 317.34 86.72 308.55C88.79 309.47 91.18 310.88 92.78 312.34C98.75 317.78 102.16 323.72 104.02 331.48C95.55 337.58 86.04 345.39 79.47 352.99Z" fill="white"/>
<path d="M161.15 383.55C182.35 382.41 202.65 383.93 223.47 387.25C231.42 419.54 238.8 451.92 246.31 484.32C233.66 484.3 221.57 485.16 208.55 484.55C203.99 469.79 188.4 441.15 182.31 431.49C175.76 421.11 172.23 414.24 166 414.33C149.73 414.56 136.5 457.77 129.67 469.38C128.38 471.57 124.28 481.83 122.58 485.09C121.99 485.38 121.53 485.24 121.03 485.25C111.9 485.32 102.79 485.33 93.67 485.38C93.7 485.18 93.72 485.02 93.75 484.82C97.15 460.72 100.89 436.75 105.04 412.73C106.24 405.82 107.49 398.65 108.78 391.69C125.92 387.6 143.64 384.51 161.13 383.57L161.15 383.55Z" fill="white"/>
<path d="M234.89 250.26C221.05 262.6 210.96 263.64 196.01 269.81C187.61 273.28 178.46 275.2 169.65 277.92C169.51 279.24 169.4 280.65 169.27 282C169.79 281.98 170.29 281.93 170.82 281.93C167.92 284.93 164.97 286.94 160.6 287.12C156.23 287.3 152.52 285.41 149.52 282.23C150.92 282 152.36 281.87 153.78 281.72C153.41 280.46 153.01 279.13 152.67 277.9C130.24 275.15 109.94 268.93 90.22 257.17C79.91 251.02 69.64 242.12 61.24 233.09C52.69 235.57 44.16 233.5 36.8 229.28C29.08 224.86 24.61 212.65 24.2 206.53C23.51 196.27 25.23 191.72 30.85 185.95C35.65 181.02 41.01 182.05 46.71 182C44.73 145.74 52.46 107.12 84.14 84.3199C88.43 81.2299 100.27 76.2499 106.88 74.9999C109.55 61.7299 123.22 34.5099 137.23 36.2299C151.24 37.9499 147.95 51.7999 152.51 59.4399C156.41 48.0699 161.36 22.8599 178.67 24.2299C197.89 25.7399 200.77 57.3399 200.51 72.1799C207.54 74.5199 213.17 75.5299 219.45 80.0999C236.8 92.7399 244.19 113.08 248.66 132.75C251.45 145.02 251.81 153.22 252.69 164.76C253.85 179.96 254.03 194.47 253.34 209.99C252.42 223.33 243.12 242.93 234.89 250.26Z" fill="white"/>
<path d="M208.81 484.91C222.63 484.87 237.59 484.23 251.06 484.39C256.18 484.45 257.6 487.69 257.27 491.97C257.1 494.24 255.95 497.84 255.33 500.16C254.89 501.81 254.05 502.68 252.09 502.65C241.9 502.5 230.87 502.3 220.63 501.97C218.86 501.91 218.18 501.46 217.27 499.95C214.4 495.2 211.61 489.83 208.8 484.9L208.81 484.91Z" fill="#002B21"/>
<path d="M119.72 485.15C111.16 484.75 101.09 485 92.31 484.79C91.24 484.76 90.57 485 89.89 485.49C85.77 488.47 83.46 492.9 83.57 497.66C83.63 500.28 84.57 502.13 85.69 503.78C86.81 505.43 87.59 505.75 89.49 505.71C97.99 505.52 107.37 505.16 115.8 504.76C118.02 504.66 118.98 503.82 119.73 501.92C121.02 498.7 122.92 494.19 123.77 490.97C124.63 487.75 123.43 485.32 119.71 485.14L119.72 485.15Z" fill="#002B21"/>
<path d="M221.55 163.85C210.87 163.45 206.42 181.04 206.78 189.91C207.07 196.97 210.03 212.05 219.53 212.17C229.03 212.29 233.19 196.43 233.42 188.81C233.66 180.88 231.73 164.23 221.54 163.85H221.55Z" fill="#0B3F34"/>
<path d="M119.07 164.04C130.11 164.94 133.18 180.79 132.48 190.15C131.9 197.82 127.97 211.25 118.04 211.37C107.61 211.5 102.19 196.83 102.31 187.97C102.44 178.56 108.03 163.13 119.07 164.03V164.04Z" fill="#0B3F34"/>
<path d="M125.72 116.37C111.23 115.55 101.73 120.27 93.03 131.83C95.48 113.33 109.85 106.29 125.72 116.37Z" fill="#0B3F34"/>
<path d="M233.48 128.63C229.1 121.79 224.93 116.22 216.3 115.38C213.71 115.13 210.74 116.38 208.22 117.05C220.12 103.12 234.13 111.92 233.48 128.63Z" fill="#0B3F34"/>
<path d="M147.86 222.98C161.81 241.85 177.18 243.85 194.01 226.94C192.1 232.1 190.63 236.91 185.26 239.85C168.09 249.25 152.22 242.43 147.86 222.98Z" fill="#0B3F34"/>
<path d="M288.2 352.92C285.77 357.26 278.69 358.92 273.5 354.82L237 334.92C236.98 332.54 237.27 328.17 239.53 323.32C241.64 318.77 244.55 315.85 246.31 314.32L285.2 341.02C289.11 344.23 290.15 349.44 288.2 352.92Z" fill="white"/>
<path d="M246.31 314.32C244.55 315.85 241.64 318.77 239.53 323.32C237.27 328.17 236.98 332.54 237 334.92C224.8 329.65 212.6 324.39 200.4 319.12L177.02 282.81C178.2 283.1 179.39 283.4 180.57 283.72C200.82 289.13 223.2 298.47 246.31 314.32Z" fill="#039D9D"/>
<path d="M293.6 323.92L263.08 359.92L261.4 370.92L269.4 368.32L302.02 330.71L293.6 323.92Z" fill="#292929"/>
<path d="M263.45 360.26L265.13 360.62L264.77 362.29L266.99 362.44L266.52 363.97L268.1 364.23L267.88 365.76H269.29L268.99 367.55" stroke="white" stroke-width="0.25" stroke-miterlimit="10"/>
<path d="M292.32 328.38L297.84 333.03" stroke="white" stroke-width="0.25" stroke-miterlimit="10"/>
</g>
<defs>
<filter id="filter0_d_20_87" x="8.05594" y="8.17627" width="309.964" height="513.537" filterUnits="userSpaceOnUse" color-interpolation-filters="sRGB">
<feFlood flood-opacity="0" result="BackgroundImageFix"/>
<feColorMatrix in="SourceAlpha" type="matrix" values="0 0 0 0 0 0 0 0 0 0 0 0 0 0 0 0 0 0 127 0" result="hardAlpha"/>
<feOffset/>
<feGaussianBlur stdDeviation="8"/>
<feColorMatrix type="matrix" values="0 0 0 0 0 0 0 0 0 0 0 0 0 0 0 0 0 0 1 0"/>
<feBlend mode="normal" in2="BackgroundImageFix" result="effect1_dropShadow_20_87"/>
<feBlend mode="normal" in="SourceGraphic" in2="effect1_dropShadow_20_87" result="shape"/>
</filter>
</defs>
</svg>
