<svg width="270" height="510" viewBox="0 0 270 510" fill="none" xmlns="http://www.w3.org/2000/svg">
<g filter="url(#filter0_d_26_354)">
<path d="M91.0248 302.122C93.0512 304.138 94.8137 306.264 96.3432 308.722C94.7981 306.256 93.0357 304.138 91.0248 302.122Z" fill="white"/>
<path d="M233.238 472.867C229.076 472.743 224.977 472.72 220.877 472.712C216.933 472.696 213.005 472.696 209.03 472.627H208.843C204.495 472.557 200.109 472.402 195.613 472.076C191.716 457.379 177.601 428.661 171.879 418.974C165.722 408.566 162.275 401.796 156.126 401.788C140.054 401.757 125.536 444.249 118.463 455.596C117.12 457.736 112.741 467.826 111.048 471.068C110.458 471.347 110 471.207 109.511 471.207H109.068C100.21 471.207 91.382 471.13 82.5388 471.114C82.5621 470.928 82.5854 470.765 82.6087 470.571V470.556C85.9705 446.615 91.0093 422.968 95.9317 399.275C97.3447 392.466 98.8121 385.447 100.28 378.584C101.328 378.351 102.384 378.126 103.439 377.893C105.396 377.482 107.368 377.071 109.34 376.684C109.612 376.629 109.884 376.575 110.155 376.521C111.266 376.304 112.384 376.094 113.494 375.893C114.394 375.722 115.295 375.559 116.203 375.396C116.297 375.381 116.39 375.365 116.491 375.35C121.731 374.419 127.011 373.62 132.29 372.976C133.292 372.852 134.293 372.736 135.287 372.627C135.365 372.627 135.443 372.612 135.52 372.604C136.382 372.511 137.236 372.418 138.098 372.341C138.525 372.294 138.952 372.255 139.379 372.216C140.404 372.116 141.436 372.03 142.461 371.945C143.075 371.898 143.696 371.844 144.317 371.813C144.721 371.782 145.116 371.751 145.52 371.728C145.761 371.705 146.002 371.689 146.242 371.681C146.949 371.627 147.663 371.588 148.37 371.557C148.416 371.557 148.455 371.557 148.494 371.557C149.55 371.495 150.598 371.449 151.654 371.41C160.606 371.069 169.363 371.224 178.067 371.805C179.674 371.906 181.281 372.03 182.888 372.17C189.573 372.728 196.242 373.527 202.935 374.535C205.085 374.861 207.228 375.202 209.379 375.567C210.458 375.753 211.537 375.939 212.616 376.133C220.21 408.264 226.677 440.519 233.23 472.875L233.238 472.867Z" fill="white"/>
<path d="M244.526 202.495C243.478 215.579 234.41 234.456 226.118 241.591C212.151 253.612 201.972 254.573 186.832 260.623C178.331 264.02 168.269 266.238 159.286 269.022C159.061 270.348 158.936 271.744 158.75 273.101C159.262 273.086 159.752 273.024 160.272 273.032C159.55 273.768 158.835 274.435 158.098 275.04C157.911 275.195 157.725 275.343 157.539 275.482C157.352 275.622 157.166 275.754 156.972 275.886C156.817 275.994 156.661 276.103 156.498 276.196C156.118 276.436 155.73 276.661 155.334 276.855C155.233 276.909 155.132 276.956 155.023 277.002C154.876 277.08 154.713 277.142 154.557 277.212C154.239 277.344 153.905 277.46 153.571 277.561C153.455 277.599 153.339 277.63 153.23 277.662C152.779 277.793 152.306 277.886 151.801 277.964C151.312 278.034 150.792 278.073 150.248 278.096C148.02 278.166 146.002 277.685 144.161 276.762C143.734 276.545 143.315 276.304 142.904 276.041C142.5 275.777 142.096 275.49 141.708 275.188C141.506 275.04 141.32 274.877 141.134 274.714C140.567 274.226 140.023 273.683 139.495 273.109H139.511C140.877 272.915 142.29 272.807 143.672 272.675C143.339 271.426 142.974 270.1 142.686 268.89C121.087 265.803 101.91 258.878 83.2764 246.826C73.5404 240.528 63.4938 231.245 55.4425 222.35C46.9488 224.661 38.5248 222.474 31.2811 218.317C23.6879 213.958 19.2624 202.007 18.8665 196.012C18.2143 185.961 19.9068 181.602 25.5202 176.034C30.3106 171.272 35.6677 172.334 41.2811 172.35C39.573 136.698 48.0435 98.797 79.472 76.8568C83.7267 73.8864 95.5668 69.0393 102.112 67.8837C104.938 54.901 118.719 28.1834 132.492 30.0758C146.266 31.9681 142.935 45.4549 147.337 53.063C151.289 42.0192 156.405 17.1784 173.385 18.7993C192.244 20.5986 194.72 51.6515 194.27 66.2628C201.149 68.6825 206.584 69.7295 212.694 74.3518C229.573 87.125 236.491 107.196 240.73 126.693C243.37 138.854 243.401 146.648 244.371 158.351C244.674 161.996 244.783 166.774 244.953 170.605C245.023 172.172 245.062 173.986 245.07 175.32C245.148 184.573 245.241 193.088 244.534 202.495H244.526Z" fill="white"/>
<path d="M195.846 472.44C209.635 472.758 224.573 472.534 238.005 473.076C243.106 473.278 244.511 476.52 244.076 480.793C243.843 483.065 242.616 486.586 241.941 488.898C241.46 490.534 240.598 491.372 238.626 491.286C228.377 490.844 217.252 490.332 206.964 489.72C205.179 489.611 204.503 489.146 203.657 487.626C200.986 482.81 198.447 477.419 195.846 472.448V472.44Z" fill="#002B21"/>
<path d="M108.207 471.107C99.7515 470.641 89.8602 470.804 81.2112 470.533C80.1553 470.502 79.5031 470.726 78.8432 471.207C74.7748 474.178 72.6863 478.567 72.9115 483.275C73.0357 485.857 74.014 487.75 75.1397 489.371C76.2578 490.992 77.0419 491.348 78.8975 491.317C87.2127 491.193 96.3432 490.898 104.581 490.557C106.755 490.472 107.655 489.642 108.362 487.765C109.565 484.57 111.335 480.103 112.205 476.915C113.075 473.728 111.879 471.3 108.207 471.099V471.107Z" fill="#002B21"/>
<path d="M185.411 156.405C174.93 155.846 170.435 173.079 170.606 181.789C170.738 188.714 173.447 203.55 182.811 203.783C192.174 204.016 196.405 188.59 196.747 181.114C197.104 173.335 195.419 156.94 185.419 156.405H185.411Z" fill="#0B3F34"/>
<path d="M115.854 155.544C126.739 156.552 129.519 172.241 128.626 181.424C127.896 188.954 123.758 202.255 114.006 202.185C103.773 202.108 98.7267 187.559 98.9751 178.872C99.2391 169.636 104.969 154.536 115.854 155.552V155.544Z" fill="#0B3F34"/>
<path d="M123.54 143.306C109.231 142.367 99.7749 146.912 91.0171 158.188C93.6724 139.986 108.005 133.262 123.54 143.306Z" fill="#0B3F34"/>
<path d="M201.149 156.645C196.964 149.867 192.95 144.275 184.488 143.298C181.957 143.003 179.037 144.198 176.561 144.81C188.463 131.184 201.957 140.374 201.149 156.645Z" fill="#0B3F34"/>
<path d="M163.641 226.088C155.846 219.519 146.234 220.651 138.859 227.437C134.433 231.501 133.331 236.821 133.439 242.522C134.635 239.202 135.745 236.023 138.54 233.572C146.172 226.894 155.357 225.793 163.377 232.23C166.615 234.828 167.151 238.171 168.23 241.762C168.766 235.922 168.602 230.268 163.649 226.096L163.641 226.088Z" fill="#0B3F34"/>
<path d="M251.281 295.244L251.258 295.22V295.135C251.266 295.205 251.281 295.244 251.281 295.244Z" fill="white"/>
<path d="M226.04 285.029C223.214 289.101 221.273 292.49 219.961 294.987C218.486 297.795 217.034 300.928 213.618 302.588C212.943 302.921 212.345 303.115 211.933 303.232C213.401 301.037 215.101 298.625 216.413 296.383C218.991 291.94 220.986 287.558 222.826 282.928C223.339 283.199 223.835 283.471 224.309 283.758C224.332 283.765 224.356 283.773 224.371 283.796C224.984 284.223 225.543 284.634 226.04 285.029Z" fill="#039D9D"/>
<path d="M96.6925 284.921C93.6025 286.061 91.2189 286.953 91.0326 287.023C92.7096 286.177 94.5963 285.441 96.6925 284.921Z" fill="#039D9D"/>
<path d="M224.309 283.757C223.835 283.47 223.339 283.199 222.826 282.927C220.986 287.557 218.991 291.939 216.413 296.383C215.101 298.624 213.401 301.036 211.933 303.231C211.755 303.053 211.172 302.518 210.303 302.494C210.023 302.487 209.775 302.533 209.589 302.587C208.261 301.928 206.677 301.284 204.829 300.811C200.8 299.772 197.166 299.951 194.464 300.4L195.047 300.889C196.087 305.325 197.104 309.753 198.121 314.19C199.884 321.883 201.623 329.584 203.401 337.278C204.946 344.002 206.514 350.726 208.144 357.442C209.651 363.639 211.095 369.92 212.632 376.117H212.624C211.545 375.923 210.466 375.737 209.387 375.559C207.236 375.194 205.085 374.853 202.943 374.527C196.25 373.519 189.581 372.72 182.896 372.162C181.289 372.022 179.682 371.898 178.075 371.797C169.371 371.216 160.613 371.06 151.661 371.402C150.606 371.441 149.557 371.487 148.502 371.549C148.463 371.549 148.424 371.549 148.377 371.549C147.671 371.58 146.957 371.627 146.25 371.673C146.009 371.673 145.769 371.696 145.528 371.72C145.124 371.735 144.721 371.766 144.325 371.805C143.703 371.844 143.09 371.89 142.469 371.937C141.444 372.022 140.411 372.107 139.387 372.208C138.96 372.239 138.533 372.286 138.106 372.332C137.244 372.41 136.39 372.503 135.528 372.596C135.45 372.596 135.373 372.612 135.295 372.619C134.293 372.728 133.3 372.844 132.298 372.968C127.834 373.503 123.385 374.163 118.944 374.907C118.129 375.047 117.314 375.194 116.498 375.342C116.398 375.357 116.304 375.373 116.211 375.388C114.185 375.745 112.174 376.125 110.163 376.513C109.891 376.567 109.62 376.621 109.348 376.675C108.439 376.854 107.531 377.04 106.623 377.218C105.559 377.435 104.503 377.653 103.447 377.885C102.384 378.102 101.328 378.335 100.28 378.568C101.592 372.387 102.896 366.198 104.2 360.009C105.846 352.23 107.5 344.444 109.146 336.657C109.457 335.207 109.759 333.749 110.07 332.291C111.382 326.141 112.686 319.975 114.006 313.825C114.371 312.103 114.736 310.382 115.109 308.668C115.109 308.668 114.037 296.22 105.714 303.627C104.705 302.781 103.688 302.021 102.655 301.339C102.05 300.943 101.444 300.571 100.823 300.222C100.21 299.873 99.5808 299.547 98.9441 299.237C97.6863 298.624 96.3898 298.081 95.0544 297.593C94.2935 297.314 93.5093 297.05 92.7252 296.802C91.118 296.298 89.4565 295.84 87.6941 295.39C86.646 295.119 85.1941 295.088 83.7888 295.158C83.3773 295.181 82.9658 295.212 82.5776 295.243C82.3603 295.258 82.1506 295.274 81.9488 295.289C81.6382 295.321 81.3276 295.367 81.0404 295.406C81.1413 295.266 81.25 295.119 81.3665 294.972C82.6553 293.304 84.7826 290.977 87.8416 288.899C88.8121 288.24 89.868 287.596 91.0326 287.022C91.0326 287.022 91.0404 287.022 91.0404 287.014C91.2267 286.945 93.6103 286.053 96.7003 284.913C96.7003 284.913 96.7158 284.913 96.7236 284.913C96.7857 284.889 96.8478 284.874 96.9177 284.858H96.9255C97.1894 284.75 97.4534 284.641 97.7252 284.54C97.7795 284.517 97.8339 284.502 97.8882 284.478C98.0978 284.393 98.3152 284.315 98.5249 284.23C102.065 282.873 105.575 281.593 109.084 280.422C109.907 280.143 110.606 279.91 111.11 279.748C111.11 279.748 111.115 279.745 111.126 279.74C120.357 276.731 129.627 274.404 139.495 273.101C140.023 273.683 140.567 274.226 141.134 274.714C141.32 274.877 141.506 275.04 141.708 275.187C142.096 275.49 142.5 275.777 142.904 276.04C143.315 276.304 143.734 276.544 144.161 276.762C146.002 277.685 148.02 278.165 150.248 278.096C150.792 278.072 151.312 278.034 151.801 277.964C152.306 277.886 152.78 277.793 153.23 277.661C153.339 277.63 153.455 277.599 153.571 277.56C153.68 277.529 153.789 277.491 153.905 277.46C154.13 277.382 154.348 277.297 154.557 277.211C154.721 277.142 154.876 277.08 155.023 277.002C155.132 276.956 155.233 276.909 155.334 276.855C155.73 276.661 156.118 276.436 156.498 276.196C156.661 276.095 156.817 275.994 156.972 275.885C157.166 275.753 157.352 275.622 157.539 275.482C157.725 275.342 157.911 275.195 158.098 275.04C158.851 274.443 159.589 273.76 160.342 273.024C160.668 273 161.002 272.992 161.335 272.985C167.112 272.721 174.123 272.737 180.512 272.372C199.045 273.38 209.371 276.878 214.123 279.057L214.107 279.042C218.121 279.949 221.677 281.927 224.309 283.757Z" fill="#039D9D"/>
<path d="M102.648 301.347C103.68 302.029 104.697 302.789 105.707 303.635C104.239 304.938 103.292 305.519 102.725 305.589C102.508 305.411 102.275 305.232 102.034 305.062C98.0978 302.169 92.2593 300.176 87.5466 298.927C83.191 297.772 79.8059 297.26 79.8059 297.26C79.8059 297.244 79.8059 297.229 79.8292 297.221C79.9301 297.05 80.3183 296.376 81.0326 295.414C81.3199 295.375 81.6304 295.329 81.941 295.298C82.1429 295.282 82.3525 295.267 82.5699 295.251C82.9581 295.22 83.3696 295.189 83.7811 295.166C85.1863 295.096 86.6382 295.127 87.6863 295.398C89.4488 295.848 91.1103 296.306 92.7174 296.81C93.5016 297.058 94.2857 297.322 95.0466 297.601C96.382 298.089 97.6786 298.632 98.9363 299.245C99.573 299.555 100.202 299.881 100.815 300.23C101.436 300.579 102.042 300.951 102.648 301.347Z" fill="#039D9D"/>
<path d="M113.502 375.892C114.402 375.722 115.303 375.559 116.211 375.396C114.185 375.753 112.174 376.133 110.163 376.521C111.273 376.303 112.391 376.094 113.502 375.892Z" fill="#039D9D"/>
<path d="M140.023 273.66C140.388 274.032 140.745 274.373 141.126 274.714C140.559 274.226 140.016 273.683 139.488 273.109H139.503C139.666 273.295 139.845 273.481 140.023 273.66Z" fill="#039D9D"/>
<path d="M237.632 317.463L237.585 317.54C235.59 321.061 232.508 324.148 228.548 326.638C222.042 330.725 212.508 334.316 203.401 337.278C201.623 329.585 199.884 321.883 198.121 314.19C201.599 313.368 205.171 312.569 208.975 311.755H208.991C214.728 309.607 212.484 304.077 212.112 303.255C212.05 303.247 211.995 303.239 211.933 303.232C213.401 301.037 215.101 298.625 216.413 296.383C218.991 291.94 220.986 287.558 222.826 282.928C223.338 283.199 223.835 283.471 224.309 283.758C224.332 283.765 224.356 283.773 224.371 283.796C243.517 295.019 238.09 315.819 237.632 317.463Z" fill="white"/>
<path d="M113.998 313.833C112.679 319.983 111.374 326.149 110.062 332.299C109.752 333.757 109.449 335.215 109.138 336.665C101.374 333.625 93.6646 330.143 88.222 326.381C78.1599 319.433 74.3323 308.66 79.8059 297.26C79.8059 297.244 79.8059 297.229 79.8292 297.221C80.1087 296.631 80.4115 296.042 80.7453 295.453C80.8385 295.437 80.9394 295.429 81.0326 295.414C81.3199 295.375 81.6304 295.329 81.941 295.298C82.1429 295.282 82.3525 295.267 82.5699 295.251C82.9581 295.22 83.3696 295.189 83.7811 295.166C85.1863 295.096 86.6382 295.127 87.6863 295.398C89.4488 295.848 91.1102 296.306 92.7174 296.81C93.5015 297.058 94.2857 297.322 95.0466 297.601C96.382 298.089 97.6786 298.632 98.9363 299.245C99.573 299.555 100.202 299.881 100.815 300.23C101.436 300.579 102.042 300.951 102.648 301.347C103.68 302.029 104.697 302.789 105.707 303.635C105.707 303.635 102.314 309.769 108.408 312.352H108.416C110.334 312.856 112.189 313.345 113.998 313.833Z" fill="white"/>
<path d="M97.7174 284.541C97.4456 284.641 97.1817 284.75 96.9177 284.858H96.9099C96.84 284.874 96.7779 284.89 96.7158 284.913C97.0419 284.789 97.3758 284.665 97.7174 284.541Z" fill="#039D9D"/>
<path d="M185.311 208.576C180.303 212.197 178.09 217.285 179.526 220.907C180.256 222.753 182.275 225.095 184.829 225.041C187.523 224.979 189.363 222.249 190.008 220.504C191.374 216.835 189.511 212.081 185.311 208.576Z" fill="#039D9D"/>
</g>
<defs>
<filter id="filter0_d_26_354" x="2.73438" y="2.72363" width="264.547" height="504.595" filterUnits="userSpaceOnUse" color-interpolation-filters="sRGB">
<feFlood flood-opacity="0" result="BackgroundImageFix"/>
<feColorMatrix in="SourceAlpha" type="matrix" values="0 0 0 0 0 0 0 0 0 0 0 0 0 0 0 0 0 0 127 0" result="hardAlpha"/>
<feOffset/>
<feGaussianBlur stdDeviation="8"/>
<feColorMatrix type="matrix" values="0 0 0 0 0 0 0 0 0 0 0 0 0 0 0 0 0 0 1 0"/>
<feBlend mode="normal" in2="BackgroundImageFix" result="effect1_dropShadow_26_354"/>
<feBlend mode="normal" in="SourceGraphic" in2="effect1_dropShadow_26_354" result="shape"/>
</filter>
</defs>
</svg>
