<svg width="106" height="107" viewBox="0 0 106 107" fill="none" xmlns="http://www.w3.org/2000/svg">
<g clip-path="url(#clip0_16_434)">
<path d="M59.6267 13.3076C59.6267 16.9852 56.6613 19.9637 53 19.9637H19.8756C16.2143 19.9637 13.2489 16.9852 13.2489 13.3076C13.2489 9.63012 16.2143 6.65155 19.8756 6.65155H53C56.6613 6.65155 59.6267 9.63012 59.6267 13.3076Z" stroke="white" stroke-miterlimit="10"/>
<path d="M59.6267 36.6016C59.6267 38.4381 58.144 39.9274 56.3156 39.9274H16.5645C14.7361 39.9274 13.2534 38.4381 13.2534 36.6016C13.2534 34.7652 14.7361 33.2759 16.5645 33.2759H56.3156C58.144 33.2759 59.6267 34.7652 59.6267 36.6016Z" stroke="white" stroke-miterlimit="10"/>
<path d="M59.6267 56.5608C59.6267 58.3973 58.144 59.8866 56.3156 59.8866H16.5645C14.7361 59.8866 13.2534 58.3973 13.2534 56.5608C13.2534 54.7243 14.7361 53.235 16.5645 53.235H56.3156C58.144 53.235 59.6267 54.7243 59.6267 56.5608Z" stroke="white" stroke-miterlimit="10"/>
<path d="M59.6267 76.5245C59.6267 78.361 58.144 79.8503 56.3156 79.8503H16.5645C14.7361 79.8503 13.2534 78.361 13.2534 76.5245C13.2534 74.688 14.7361 73.1987 16.5645 73.1987H56.3156C58.144 73.1987 59.6267 74.688 59.6267 76.5245Z" stroke="white" stroke-miterlimit="10"/>
<path d="M0 0V106.47H67.5224C68.6776 103.514 70.5423 100.906 72.8756 98.8455V0H0ZM56.3111 99.8185H16.5645C14.7361 99.8185 13.2534 98.3293 13.2534 96.4928C13.2534 94.6563 14.7361 93.167 16.5645 93.167H56.3156C58.144 93.167 59.6267 94.6563 59.6267 96.4928C59.6267 98.3293 58.144 99.8185 56.3156 99.8185H56.3111ZM56.3111 79.8548H16.5645C14.7361 79.8548 13.2534 78.3655 13.2534 76.5291C13.2534 74.6926 14.7361 73.2033 16.5645 73.2033H56.3156C58.144 73.2033 59.6267 74.6926 59.6267 76.5291C59.6267 78.3655 58.144 79.8548 56.3156 79.8548H56.3111ZM56.3111 59.8911H16.5645C14.7361 59.8911 13.2534 58.4018 13.2534 56.5654C13.2534 54.7289 14.7361 53.2396 16.5645 53.2396H56.3156C58.144 53.2396 59.6267 54.7289 59.6267 56.5654C59.6267 58.4018 58.144 59.8911 56.3156 59.8911H56.3111ZM56.3111 39.9274H16.5645C14.7361 39.9274 13.2534 38.4381 13.2534 36.6017C13.2534 34.7652 14.7361 33.2759 16.5645 33.2759H56.3156C58.144 33.2759 59.6267 34.7652 59.6267 36.6017C59.6267 38.4381 58.144 39.9274 56.3156 39.9274H56.3111ZM53 19.9637H19.8756C16.2143 19.9637 13.2489 16.9851 13.2489 13.3076C13.2489 9.63009 16.2143 6.65152 19.8756 6.65152H53C56.6613 6.65152 59.6267 9.63009 59.6267 13.3076C59.6267 16.9851 56.6613 19.9637 53 19.9637Z" fill="white"/>
<path d="M104.476 106.47H67.5224C68.6776 103.514 70.5424 100.906 72.8756 98.8455C76.3777 95.739 80.9623 93.8615 86.0016 93.8615C94.393 93.8615 101.575 99.0785 104.476 106.475V106.47Z" stroke="white" stroke-width="2.31" stroke-miterlimit="10"/>
<path d="M86.0016 94.9167C93.256 94.9167 99.7144 98.9871 102.866 105.415H69.1415C70.2194 103.24 71.7294 101.262 73.5715 99.6358C77.0053 96.5933 81.4171 94.9167 86.0016 94.9167ZM86.0016 93.8614C80.9623 93.8614 76.3777 95.7435 72.8756 98.8455C70.5424 100.906 68.6776 103.514 67.5224 106.47H104.476C101.575 99.0784 94.393 93.8568 86.0016 93.8568V93.8614Z" fill="white"/>
<path d="M86.1244 72.5226C91.0228 72.5226 95.0116 76.5245 95.0116 81.4492C95.0116 82.2212 94.9161 82.9705 94.7296 83.6786C93.7154 87.621 90.1769 90.3758 86.1244 90.3758C82.072 90.3758 78.5335 87.621 77.5193 83.6694C77.3328 82.9705 77.2373 82.2212 77.2373 81.4492C77.2373 76.5291 81.2215 72.5226 86.1244 72.5226ZM86.1244 71.4673C80.6348 71.4673 76.1866 75.9352 76.1866 81.4492C76.1866 82.3172 76.2913 83.1486 76.5005 83.9435C77.6057 88.2423 81.4944 91.4311 86.1244 91.4311C90.7545 91.4311 94.6432 88.2423 95.7484 83.9435C95.9576 83.1532 96.0622 82.3172 96.0622 81.4492C96.0622 75.9352 91.6141 71.4673 86.1244 71.4673Z" fill="white"/>
<path d="M106 51.5037C106 53.3401 104.517 54.8294 102.689 54.8294H99.3779V58.1552C99.3779 59.9917 97.8952 61.4809 96.0668 61.4809C94.2384 61.4809 92.7557 59.9917 92.7557 58.1552V54.8294H89.4446C87.6163 54.8294 86.1335 53.3401 86.1335 51.5037C86.1335 49.6672 87.6163 48.1779 89.4446 48.1779H92.7557V44.8521C92.7557 43.0157 94.2384 41.5264 96.0668 41.5264C97.8952 41.5264 99.3779 43.0157 99.3779 44.8521V48.1779H102.689C104.517 48.1779 106 49.6672 106 51.5037Z" fill="white"/>
</g>
<defs>
<clipPath id="clip0_16_434">
<rect width="106" height="107" fill="white"/>
</clipPath>
</defs>
</svg>
