<svg width="270" height="254" viewBox="0 0 270 254" fill="none" xmlns="http://www.w3.org/2000/svg">
<g clip-path="url(#clip0_16_417)">
<path d="M0 0V252.5H173.59V250.52C161.04 247.29 149.99 240.3 141.78 230.81C140.9 234.22 137.82 236.72 134.14 236.72H39.45C35.09 236.72 31.56 233.19 31.56 228.83C31.56 224.47 35.09 220.94 39.45 220.94H134.14C134.34 220.94 134.54 220.94 134.74 220.97C129.33 211.68 126.25 200.91 126.25 189.38H39.45C35.09 189.38 31.56 185.85 31.56 181.49C31.56 177.13 35.09 173.6 39.45 173.6H128.23C133.94 151.41 151.4 133.95 173.59 128.24V118.37C173.59 121.23 172.06 123.76 169.78 125.11L169.45 125.31L122.93 156.35C121.65 157.28 120.05 157.83 118.35 157.83C113.99 157.83 110.46 154.3 110.46 149.94C110.46 147.11 111.94 144.63 114.17 143.28L114.6 143L116 142.05H39.45C35.09 142.05 31.56 138.52 31.56 134.16C31.56 129.8 35.09 126.27 39.45 126.27H134.14C135.57 126.27 136.92 126.65 138.07 127.32L161.27 111.84C162.52 110.99 164.05 110.49 165.7 110.49C170.06 110.49 173.59 114.02 173.59 118.38V0H0ZM134.14 94.69H39.45C35.09 94.69 31.56 91.16 31.56 86.8C31.56 82.44 35.09 78.91 39.45 78.91H134.14C138.5 78.91 142.03 82.44 142.03 86.8C142.03 91.16 138.5 94.69 134.14 94.69ZM126.25 47.35H47.34C38.62 47.35 31.56 40.29 31.56 31.57C31.56 22.85 38.62 15.79 47.34 15.79H126.25C134.97 15.79 142.03 22.85 142.03 31.57C142.03 40.29 134.97 47.35 126.25 47.35Z" fill="white"/>
<path d="M114.6 142.98L116 142.03H118.35C117 142.03 115.69 142.38 114.59 142.98H114.6Z" stroke="white" stroke-width="2.5" stroke-miterlimit="10"/>
<path d="M142.03 31.56C142.03 40.28 134.97 47.34 126.25 47.34H47.34C38.62 47.34 31.56 40.28 31.56 31.56C31.56 22.84 38.62 15.78 47.34 15.78H126.25C134.97 15.78 142.03 22.84 142.03 31.56Z" stroke="white" stroke-width="2.5" stroke-miterlimit="10"/>
<path d="M142.03 86.8C142.03 91.16 138.5 94.69 134.14 94.69H39.45C35.09 94.69 31.56 91.16 31.56 86.8C31.56 82.44 35.09 78.91 39.45 78.91H134.14C138.5 78.91 142.03 82.44 142.03 86.8Z" stroke="white" stroke-width="2.5" stroke-miterlimit="10"/>
<path d="M138.07 127.3L126.32 135.14L116 142.03H39.45C35.09 142.03 31.56 138.5 31.56 134.14C31.56 129.78 35.09 126.25 39.45 126.25H134.14C135.57 126.25 136.92 126.63 138.07 127.3Z" stroke="white" stroke-width="2.5" stroke-miterlimit="10"/>
<path d="M128.23 173.59C127.9 174.84 127.63 176.12 127.4 177.42C127 179.42 126.7 181.48 126.52 183.56C126.34 185.49 126.24 187.42 126.24 189.37H39.45C35.09 189.37 31.56 185.84 31.56 181.48C31.56 177.12 35.09 173.59 39.45 173.59H128.23Z" stroke="white" stroke-width="2.5" stroke-miterlimit="10"/>
<path d="M141.78 230.81C140.9 234.22 137.82 236.72 134.14 236.72H39.45C35.09 236.72 31.56 233.19 31.56 228.83C31.56 224.47 35.09 220.94 39.45 220.94H134.14C134.34 220.94 134.54 220.94 134.74 220.97C136.74 224.48 139.1 227.78 141.78 230.81Z" stroke="white" stroke-width="2.5" stroke-miterlimit="10"/>
<path d="M189.38 128.76C222.81 128.76 250 155.95 250 189.38C250 222.81 222.81 250 189.38 250C184.29 250 179.19 249.36 174.22 248.1C162.3 245.03 151.74 238.49 143.66 229.15C141.12 226.28 138.85 223.11 136.91 219.7C131.58 210.54 128.76 200.05 128.76 189.37C128.76 187.57 128.85 185.75 129.03 183.77C129.19 181.85 129.47 179.88 129.87 177.91V177.88L129.88 177.85C130.09 176.62 130.36 175.4 130.66 174.21C136.16 152.84 152.85 136.15 174.22 130.65C179.19 129.39 184.3 128.75 189.39 128.75M189.39 239.22C216.88 239.22 239.24 216.86 239.24 189.37C239.24 161.88 216.88 139.52 189.39 139.52C183.68 139.52 178.09 140.48 172.78 142.37C152.9 149.38 139.55 168.27 139.55 189.37C139.55 210.47 152.91 229.36 172.78 236.37C178.1 238.26 183.69 239.22 189.4 239.22M189.4 126.25C183.94 126.25 178.65 126.95 173.62 128.23C151.43 133.94 133.97 151.4 128.26 173.59C127.93 174.84 127.66 176.12 127.43 177.42C127.03 179.42 126.73 181.48 126.55 183.56C126.37 185.49 126.27 187.42 126.27 189.37C126.27 200.89 129.35 211.66 134.76 220.96C136.76 224.47 139.12 227.77 141.8 230.8C150.02 240.29 161.06 247.28 173.61 250.51C178.65 251.79 183.93 252.49 189.39 252.49C224.26 252.49 252.52 224.23 252.52 189.36C252.52 154.49 224.26 126.23 189.39 126.23L189.4 126.25ZM189.4 236.72C183.86 236.72 178.55 235.77 173.62 234.01C155.23 227.52 142.06 209.99 142.06 189.37C142.06 168.75 155.24 151.22 173.62 144.73C178.55 142.98 183.87 142.02 189.4 142.02C215.55 142.02 236.74 163.21 236.74 189.36C236.74 215.51 215.55 236.7 189.4 236.7V236.72Z" fill="white"/>
<path d="M173.59 118.36C173.59 121.22 172.06 123.75 169.78 125.1L169.45 125.3L122.93 156.34C121.65 157.27 120.05 157.82 118.35 157.82C113.99 157.82 110.46 154.29 110.46 149.93C110.46 147.1 111.94 144.62 114.17 143.27L114.6 142.99C115.7 142.39 117 142.04 118.36 142.04H116.01L126.33 135.15L138.08 127.31L161.28 111.83C162.53 110.98 164.06 110.48 165.71 110.48C170.07 110.48 173.6 114.01 173.6 118.37L173.59 118.36Z" stroke="white" stroke-width="2.5" stroke-miterlimit="10"/>
<path d="M268.28 149.92C268.28 154.28 264.75 157.81 260.39 157.81C258.69 157.81 257.08 157.26 255.81 156.33L209.29 125.29L208.96 125.09C206.68 123.74 205.15 121.21 205.15 118.35C205.15 113.99 208.68 110.46 213.04 110.46C214.69 110.46 216.22 110.96 217.47 111.81L264.59 143.25C266.79 144.63 268.27 147.11 268.27 149.91L268.28 149.92Z" stroke="white" stroke-width="2.5" stroke-miterlimit="10"/>
<path d="M189.38 142.03C183.84 142.03 178.53 142.98 173.6 144.74C155.21 151.23 142.04 168.76 142.04 189.38C142.04 210 155.22 227.53 173.6 234.02C178.53 235.77 183.85 236.73 189.38 236.73C215.53 236.73 236.72 215.54 236.72 189.39C236.72 163.24 215.53 142.05 189.38 142.05V142.03ZM189.38 228.83C185.02 228.83 181.49 225.3 181.49 220.94C181.49 216.58 185.02 213.05 189.38 213.05C193.74 213.05 197.27 216.58 197.27 220.94C197.27 225.3 193.74 228.83 189.38 228.83ZM204.86 168.74L204.84 168.89L204.39 170.64L197.15 198.7C196.47 202.38 193.27 205.16 189.38 205.16C185.02 205.16 181.49 201.63 181.49 197.27L174.45 170.79C174.22 170.19 174.05 169.54 173.92 168.89L173.89 168.74C173.69 167.76 173.59 166.74 173.59 165.71C173.59 156.99 180.65 149.93 189.37 149.93C198.09 149.93 205.15 156.99 205.15 165.71C205.15 166.74 205.05 167.76 204.85 168.74H204.86Z" stroke="white" stroke-width="2.5" stroke-miterlimit="10"/>
<path d="M205.16 165.7C205.16 166.73 205.06 167.75 204.86 168.73L204.84 168.88L204.39 170.63L197.15 198.69C196.47 202.37 193.27 205.15 189.38 205.15C185.02 205.15 181.49 201.62 181.49 197.26L174.45 170.78L173.92 168.88L173.89 168.73C173.69 167.75 173.59 166.73 173.59 165.7C173.59 156.98 180.65 149.92 189.37 149.92C198.09 149.92 205.15 156.98 205.15 165.7H205.16Z" fill="white"/>
<path d="M197.27 220.94C197.27 225.3 193.74 228.83 189.38 228.83C185.02 228.83 181.49 225.3 181.49 220.94C181.49 216.58 185.02 213.05 189.38 213.05C193.74 213.05 197.27 216.58 197.27 220.94Z" fill="white"/>
</g>
<defs>
<clipPath id="clip0_16_417">
<rect width="269.53" height="253.75" fill="white"/>
</clipPath>
</defs>
</svg>
