<svg width="113" height="113" viewBox="0 0 113 113" fill="none" xmlns="http://www.w3.org/2000/svg">
<path d="M77.682 0C58.1757 0 42.3692 15.8066 42.3692 35.3128C42.3692 43.2733 44.9932 50.6154 49.4203 56.513L6.66662 86.8791L5.36759 87.7988C2.09404 90.3761 0 94.3771 0 98.8769C0 106.682 6.32368 113 14.1231 113C18.0357 113 21.5899 111.41 24.1464 108.828V108.817L26.7912 105.128L56.487 63.5693C62.3846 67.9964 69.7267 70.6205 77.6872 70.6205C97.1934 70.6205 113 54.8139 113 35.3076C113 15.8014 97.1882 0 77.682 0ZM77.682 56.4974C65.9803 56.4974 56.4922 47.0145 56.4922 35.3076C56.4922 23.6008 65.9751 14.1179 77.682 14.1179C89.3888 14.1179 98.8717 23.6008 98.8717 35.3076C98.8717 47.0145 89.3888 56.4974 77.682 56.4974Z" fill="#3D63A8"/>
</svg>
