<?xml version="1.0" encoding="UTF-8"?>
<svg id="Capa_2" data-name="Capa 2" xmlns="http://www.w3.org/2000/svg" xmlns:xlink="http://www.w3.org/1999/xlink" viewBox="0 0 71.4 81.66">
  <defs>
    <style>
      .cls-1 {
        fill: url(#Degradado_sin_nombre_12);
      }

      .cls-1, .cls-2, .cls-3 {
        stroke-width: 0px;
      }

      .cls-3 {
        fill: none;
      }

      .cls-4 {
        clip-path: url(#clippath);
      }
    </style>
    <clipPath id="clippath">
      <rect class="cls-3" width="71.4" height="81.66"/>
    </clipPath>
    <linearGradient id="Degradado_sin_nombre_12" data-name="Degradado sin nombre 12" x1="67.79" y1="-36.28" x2="230.7" y2="126.63" gradientUnits="userSpaceOnUse">
      <stop offset="0" stop-color="#35c0ca"/>
      <stop offset=".15" stop-color="#35b6c6"/>
      <stop offset=".41" stop-color="#389dbd"/>
      <stop offset=".74" stop-color="#3b74ae"/>
      <stop offset=".99" stop-color="#3f4fa1"/>
    </linearGradient>
  </defs>
  <g id="Capa_1-2" data-name="Capa 1">
    <g class="cls-4">
      <g>
        <g>
          <path class="cls-2" d="m70.68,70.76l-9.8-27.34c-.1-.39-.22-.77-.36-1.14l-.33-.78c-.11-.21-.21-.42-.33-.62l-6.31,5.06-5.92-3.95-1.73-1.15-2.12,1.51-2.86,2.03-2.22,1.57-4.36-2.74-3.75-2.37-1.01.67-3.69,2.46-2.96,1.97-2.24-1.5-5.41-3.6-5.09,4.56-.6.53h0S.63,70.84.63,70.84c-.15.36-.29.73-.4,1.11l-.02.07c-.17.63-.26,1.3-.26,1.98,0,4.23,3.43,7.66,7.66,7.66,2.11,0,4.03-.86,5.41-2.24l.02-.02c.48-.48.89-1.02,1.22-1.62.08-.13.15-.27.22-.41.17-.35.32-.71.43-1.09,0,0,0-.02,0-.02,3.43-8.1,11.46-13.79,20.82-13.79s16.93,5.37,20.51,13.12c.36.75.66,1.51.92,2.31l1.13,1.5.02.02c1.39,1.39,3.3,2.24,5.41,2.24,4.23,0,7.66-3.43,7.66-7.66,0-.69-.09-1.35-.27-1.98-.11-.44-.27-.86-.45-1.26Z"/>
          <path class="cls-2" d="m15.94,36.73l6.98,4.65,4.39-2.92,3.26-2.18,8.11,5.1,7.2-5.1.68.45,6.97,4.65,4.03-3.24.87-.7-13.09-30.66h0s-.46-1.09-.46-1.09v-.02s-.02-.02-.02-.02c-1.68-3.35-5.14-5.65-9.14-5.65s-7.46,2.3-9.13,5.65l-.49,1.16-13.87,32.16-1.09,2.54c1-2.08,2.7-3.78,4.78-4.78Z"/>
        </g>
        <g>
          <path class="cls-1" d="m70.68,70.76l-9.8-27.34c-.1-.39-.22-.77-.36-1.14l-.33-.78c-.11-.21-.21-.42-.33-.62l-6.31,5.06-5.92-3.95-1.73-1.15-2.12,1.51-2.86,2.03-2.22,1.57-4.36-2.74-3.75-2.37-1.01.67-3.69,2.46-2.96,1.97-2.24-1.5-5.41-3.6-5.09,4.56-.6.53h0S.63,70.84.63,70.84c-.15.36-.29.73-.4,1.11l-.02.07c-.17.63-.26,1.3-.26,1.98,0,4.23,3.43,7.66,7.66,7.66,2.11,0,4.03-.86,5.41-2.24l.02-.02c.48-.48.89-1.02,1.22-1.62.08-.13.15-.27.22-.41.17-.35.32-.71.43-1.09,0,0,0-.02,0-.02,3.43-8.1,11.46-13.79,20.82-13.79s16.93,5.37,20.51,13.12c.36.75.66,1.51.92,2.31l1.13,1.5.02.02c1.39,1.39,3.3,2.24,5.41,2.24,4.23,0,7.66-3.43,7.66-7.66,0-.69-.09-1.35-.27-1.98-.11-.44-.27-.86-.45-1.26Z"/>
          <path class="cls-1" d="m15.94,36.73l6.98,4.65,4.39-2.92,3.26-2.18,8.11,5.1,7.2-5.1.68.45,6.97,4.65,4.03-3.24.87-.7-13.09-30.66h0s-.46-1.09-.46-1.09v-.02s-.02-.02-.02-.02c-1.68-3.35-5.14-5.65-9.14-5.65s-7.46,2.3-9.13,5.65l-.49,1.16-13.87,32.16-1.09,2.54c1-2.08,2.7-3.78,4.78-4.78Z"/>
        </g>
      </g>
    </g>
  </g>
</svg>